<?xml version="1.0" encoding="utf-8"?>
<svg version="1.1"
	 id="svg2" xmlns:cc="http://creativecommons.org/ns#" xmlns:dc="http://purl.org/dc/elements/1.1/" xmlns:rdf="http://www.w3.org/1999/02/22-rdf-syntax-ns#" xmlns:svg="http://www.w3.org/2000/svg"
	 xmlns="http://www.w3.org/2000/svg" xmlns:xlink="http://www.w3.org/1999/xlink" x="0px" y="0px" viewBox="0 0 2391.712 2637.555"
	 enable-background="new 0 0 2391.712 2637.555" xml:space="preserve">
<path d="M867.852,762.402c-3.799-5.633-2.964-11.255-12.872-5.777c-10.839,5.508-19.174,1.268-19.174-9.756
	c0-13.131,12.201-19.132,19.939-9.808c2.634,3.174,5.82,1.905,9.632-3.836c11.204-15.191-10.611-7.434-23.57-34.472
	c-12.685-26.465-38.682-50.735-66.961-59.147c-28.97-8.618-69.788,3.969-78.104,25.987c-8.259,21.866-3.593,50.91-11.917,62.01
	c-4.646,6.194-16.45,1.9-19.851-5.336c-11.467-19.04-14.781,33.536,11.335,38.947c8.855,2.945,13.188,3.005,19.176,0.342
	c2.352-2.352,6.7-0.626,7.752,3.078c1.827,6.433,17.161,19.922,30.115,26.49c14.526,10.816,15.261,13.749,15.886-25.519
	c0.069-13.528,0.069-13.528-3.681-19.821c-4.464-7.491-4.41-7.15-1.131-7.15c15.182-2.249,26.684-20.287,20.705-36.5
	c-3.08-10.265-25.325-23.879-25.325-15.5c1.868,3.523,5.854,6.323,5.105,16.095c-0.43,10.549-21.397,14.307-26.702,4.785
	c-12.17-16.449-2.407-38.722,11.376-45.312c76.655-28.755,86.374,121.777,57.324,160.432
	c-28.487,61.594-99.907,58.802-125.148,1.736c-29.287-55.779-29.251-154.591,21.043-199.797
	c36.37-28.973,93.194-26.977,123.966,1.564c4.501,4.582,37.008,29.887,23.643,30.572c-24.073,14.986,31.935,35.207,25.523,3.668
	c-4.517-21.217,9.18-20.638,2.799-28.109c-2.151-2.733-7.173-3.667-8.466-1.574c-19.565,13.614-22.435-27.942,0.611-10.107
	c4.304,4.711,4.086,4.673,9.928,1.695c5.974-3.046,4.5-16.65-1.804-16.65c-1.343,0-3.402-6.101-4.182-12.391
	c0.483-25.998-42.211-11.071-22.028,7.071c1.535,1.38-0.669,2.795-1.674,3.141c-7.161,2.459-40.866-10.557-49.147-13.192
	c-85.479-27.201-152.834,14.339-184.66,77.468c-3.303,10.944-16.327,33.63-23.229,40.465c-7.618,7.544-8.27,9.138-5.783,14.123
	c2.712,5.436,4.897,6.762,7.9,4.794c14.226-9.321,33.519,9.738,20.41,22.823c-2.894,2.889-13.931,7.792-16.927,2.44
	c-2.702-4.827-11.875,1.044-11.875,7.6c0.826,5.296,11.437,12.252,12.756,15.658c14.696,20.62,21.048,52.48,35.302,69.214
	c22.515,26.344,40.267,42.605,74.942,52.63c28.835,6.72,75.441,0.856,99.999-18.316c40.555-25.748,53.059-85.929,59.41-94.428
	C857.7,774.718,873.058,769.828,867.852,762.402z"/>
<path d="M261.952,637.222c5.154-9.009-2.42-14.608-10.162-7.511c-4.385,4.021-7.597,3.667-10.105-1.114
	c-4.469-8.517,3.655-14.875,12.153-9.511c8.674,5.476,17.617-2.126,9.895-8.411c-1.277-1.039-2.344-4.418-3.473-11
	c-2.972-17.323-13.216-25.594-23.281-18.796c-17.99,22.336,24.586,13.221-8,23.822c-29.952,5.585-86.191,4.627-113.692-5.674
	c-4.13-1.8-16.911-14.178-18.236-17.663c-1.324-3.483-3.536-3.415-9.376,0.289c-4.78,3.031-6.247,6.49-3.242,7.643
	c8.156,3.13,5.683,19.154-3.705,24.009c-12.815,6.627-23.747-10.159-14.091-21.635c5.859-6.935-5.347-17.182-10.658-9.879
	c0,2.794-23.846,2.56-25.583-0.251c-3.676-3.305-19.85,1.74-22.908,6.137c-17.075,20.926,13.676,32.147,17.493,17.999
	c8.568-9.775,29.668,36.928,30.368,49.498c2.168,8.215,2.471,13.905,2.6,29.366c-1.388,14.048,4.032,22.922-3.724,23.136
	c-24.474-0.001-25.673,38.631-1.249,40.209c4.496,0.29,4.496,0.29,4.452,6.79c-2.559,47.844,2.866,83.836-16.445,117.771
	c-0.327,1.034-12.722,15.951-11.687,9.13c2.725-10.42-16.107-18.286-22.791-9.523c-7.193,9.43-2.927,23.771,7.88,26.493
	c15.298,5.422,29.433-8.313,41.247-0.164c6.831,5.157,16.37-3.596,11.151-10.231c-4.215-6.766-0.67-17.571,6.933-19.321
	c10.018-5.177,22.692,10.098,14.263,17.19c-6.765,5.692-1.42,15.398,6.628,12.035c12.962-4.324,29.029,7.719,40.955,0.482
	c19.219-5.002,16.739-34.837-4.468-31.724c-3.287,1.247-7.116,4.778-7.116,6.565c0,7.689-13.184-8.164-15.479-18.612
	c-8.432-17.131-10.051-74.249-8.246-93.215c1.432-15.052,4.883-29.668,18.384-23.004c11.937,5.893,34.521,19.595,24.389,22.126
	c-14.876,4.053,4.733,25.084,12.453,17.998c20.124-8.783,1.651-28.46,8.595-36.876c5.475-5.098-2.447-14.022-8.096-9.123
	c-5.61,4.865-14.779,0.966-13.519-5.75c7.737-21.224,13.551,0.045,21.968-10.593c7.322-10.684-6.595-7.183-4.432-23.087
	c0.146-10.9-1.67-12.827-8.483-14.569c-2.687-1.415-2.51-3.337-8.219-0.507c-11.536,6.055-9.079,17.84-0.314,22.63
	c-0.001,1.144-15.38,13.439-38.37,14.099c-8.409-1.344-11.485-66.273,6.9-77.222c26.809-14.49,96.321-10.399,122.968,6.773
	c22.615,16.858,4.465,9.669,2.5,22.64c2.191,12.904,13.532,15.565,24.325,7.471C274.919,667.016,253.539,641.932,261.952,637.222z"
	/>
<path d="M1815.418,874.44c-6.562-12.688-25.516-9.14-22.994,4.304c1.796,9.571-11.896-3.505-19.761-18.874
	c-21.778-42.555-30.027-114.939-13.732-120.5c19.947-6.807,17.636-31.115-3.424-36.013c-5.874-1.366-5.874-1.366-5.16-12.927
	c2.05-37.894,3.295-50.67,14.528-73.39c6.455-15.551,28.559-26.567,25.517-12.718c-1.282,5.836,5.695,10.219,12.59,7.909
	c27.205-15.089-6.365-43.91-28.065-31.859c-5.328,2.58-22.096,6.42-26.283,3.149c-6.238-4.485-16.325,3.752-12.863,10.281
	c10.308,6.37,5.04,20.567-7.633,20.567c-11.009,0-15.654-16.841-5.699-20.661c4.999-4.277-3.855-20.65-12.501-11.221
	c-13.323,6.982-41.276-8.591-54.255-0.682c-22.751,15.289,2.974,49.057,15.878,22.425c1.533-8.765,13.555,6.586,16.361,8.387
	c23.683,30.693,27.657,90.662,19.65,90.786c-10.888,0.169-19.743,15.913-15.613,27.76c12.37,20.306,24.713-1.717,19.283,31.706
	c-3.286,28.182-4.354,59.374-16.741,88.499c-4.363,10.477-23.608,39.488-22.62,29.035c0-11.906-19.04-14.344-23.894-3.06
	c-5.176,14.633,4.281,23.049,15.895,24.292c9.792,2.111,28.883-8.57,37.999-7.464c5.304-0.317,16.342,9.479,19.354,2.003
	c2.97-3.583,3.412-6.575,1.103-7.461c-8.063-3.094-7.532-20.281,0.784-25.351c12.712-7.751,27.935,11.112,17.759,22.005
	c-3.62,3.875-3.962,8.347-0.889,11.618c5.116,5.388,15.575-8.727,26.495-2.529C1790.718,902.902,1827.771,899.27,1815.418,874.44z"
	/>
<path d="M2364.917,872.672c-1.237,1.613-1.903,3.589-1.599,4.75c-0.802,8.561-9.201-14.414-11.177-21.01
	c-24.462-71.656-79.217-118.911-123.036-129.44c-30.682-4.53,48.946-1.81,90.017-79.062c6.054-12.088,34.348-54.784,37.327-44.629
	c10.86,7.643,21.989-1.761,16.794-14.192c-3.02-14.286-30.892-1.267-37.11-6.665c-9.449-3.837-15.278,2.892-9.459,10.926
	c12.56,22.33-31.081,23.883-16.02-1.39c3.594-5.13,3.887-5.964,2.603-7.414c-2.446-4.179-3.605-10.834-9.684-5.255
	c-4.445,4.248-24.539,5.912-25.798,2.136c-25.97-10.331-29.319,39.637-1.914,24.147c2.428-1.965,1.886-0.985,3.595,1.025
	c11.956,36.963-23.292,90.656-82.323,102.294c-13.943,2.749-20.345,10.101-15.971-33.479c2.797-44.036,2.075-57.248,13.321-68.87
	c4.063-4.402,7.729-5.623,6.648-2.216c-1.735,5.465,3.813,11.509,10.34,11.264c19.592-0.737,20.575-22.455,1.44-31.817
	c-15.302-6.807-23.765,9.512-38.925,0.509c-8.365-5.022-14.645,3.64-6.913,9.537c9.544,7.28,5.224,19.114-7.943,21.758
	c-12.841,2.579-19.472-11.325-10.354-21.71c6.039-6.878-2.675-15.488-10.118-9.997c-15.852,10.134-47.35-14.941-46.199,18.242
	c0.532,11.712,20.736,15.284,24.042,4.247c18.842-14.556,29.37,104.419,15.798,102.275c-24.83,2.801-22.366,35.296,2.805,37.005
	c10.361-0.142-1.203,79.719-1.946,91.924c-1.256,13.414-9.663,51.853-20.52,41.406c-6.816-11.031-21.576-2.614-18.152,10.349
	c1.74,20.025,33.726,2.171,45.176,10.659c5.491,6.621,12.775-3.012,8.441-11.162c-4.804-9.035-0.235-19.294,8.628-19.372
	c12.588-0.11,17.172,10.178,8.622,19.355c-4.378,4.699-4.346,4.526-1.73,9.653c2.24,4.39,3.572,4.755,8.28,2.271
	c14.796-3.771,48.993,7.394,49.237-19.786c-0.621-11.108-14.296-15.174-20.537-5.745c-5.565,10.471-11.201-13.25-11.924-16.41
	c-11.433-50.025-6.827-121.61-1.967-120.988c41.942,5.37,92.325,35.51,100.716,76.912c6.402,31.589-0.381,69.912-14.01,60.67
	c-11.016-7.469-22.299,1.003-18.805,14.12c3.923,18.143,31.446,5.469,45.935,10.235c4.859,2.427,5.93,2.157,10.193-2.569
	c4.392-4.869,4.59-5.682,1.934-7.956c-15.163-27.995,31.188-27.278,18.429-0.61c-2.623,3.115-3.235,6.245-1.439,7.354
	c6.049,13.253,13.491-6.016,29.439,1.015C2398.929,911.583,2392.628,851.896,2364.917,872.672z"/>
<path d="M1406.767,863.286c-9.233,0.836-11.557,8.887-10.514,15.051c-23.482-13.773-21.253-57.55-25.092-82.426
	c-0.649-1.342-2.195-43.427-2.479-44.788c0.261-11.194,20.005-1.687,20.589-22.279c2.104-12.884-8.461-23.378-19.52-23.753
	c-1.395-1.396,0.65-50.35,2.519-60.304c0.644-6.523,9.161-51.447,16.368-42.782c6.527,12.625,26.053,6.589,26.808-8.285
	c0.568-11.197-22.356-21.612-33.038-15.01c-5.955,2.987-42.008-6.592-26.141,11.779c9.646,6.669,4.549,19.949-6.734,17.542
	c-10.55-2.25-12.968-14.356-3.565-17.847c2.772-1.029,2.424-6.415-0.635-9.842c-3.014-3.376-3.014-3.376-6.782-1.696
	c-18.084,4.856-54.513-11.245-51.76,19.689c2.125,12.58,25.492,16.279,25.492,4.033c0-5.016,2.573-3.877,6.189,2.738
	c10.554,15.577,11.714,63.16,12.366,91.43c0.597,15.75,0.597,15.75-2.729,15.757c-167.524,0.35-165.326,2.961-165.326-11.507
	c0.598-52.539,1.759-62.405,14.555-94.25c1.517-4.152,2.91-4.097,6.375,0.25c5.523,6.928,20.569,3.257,20.569-5.018
	c5.8-12.744-8.703-27.866-27.259-20.115c-9.811,2.429-13.807,2.375-22.718-0.31c-7.979-2.404-13.869,6.522-8.542,12.943
	c7.012,8.451-5.12,19.122-14.496,12.75c-4.978-3.383-3.977-15.004,1.472-17.095c3.464-1.329,0.501-11.697-3.322-11.624
	c-15.239,10.81-28.09-0.675-40.635,1.965c-11.735,0.975-18.022,18.552-8.724,30.255c4.22,4.812,18.627-2.257,16.736-8.213
	c-0.888-2.798,1.557-2.674,4.197,0.212c16.233,23.121,16.167,59.972,18.865,101.5c0.529,6.408,0.578,5.231-4.743,5.79
	c-13.993,3.068-23.689,12.433-19.677,22.922c0.332,8.843,6.497,14.883,16.28,15.951c9.18,1.003,8.72-0.576,8.004,27.487
	c-0.855,29.6-1.178,38.674-4.414,63.123c-0.139,20.138-17.356,50.373-21.978,38.596c-4.593-11.706-23.234-6.963-24.741,6.295
	c-0.328,20.62,17.647,18.509,31.955,14.085c13.708-8.799,22.431,12.7,32.072,0.792c3.497-4.017,4.65-6.792,2.82-6.792
	c-8.007,0-9.433-20.042-1.636-23.006c12.443-4.731,21.679,15.247,10.327,22.336c-6.067,3.789,3.396,12.187,9.726,8.631
	c19.464-9.168,53.6,13.532,55.43-16.994c0-12.437-20.977-18.002-23.556-6.248c-2.401,19.574-24.875-24.373-22.652-121.377
	c0.209-14.158,0.209-14.158,34.959-14.268c137.277-0.435,130.736-9.315,129.862,31.571c-1.087,50.831-3.238,74.276-7.599,82.831
	c-1.778,4.659-10.096,27.58-17.09,16.732c-4.687-8.216-18.533-4.797-21.468,5.299c-2.811,9.668-0.145,15.768,8.929,20.435
	c2.588,5.431,33.12-5.556,39.801,0.502c4.367,2.179,4.954,2.035,8.937-2.192c7.394-7.846,7.707-8.942,3.531-12.385
	c-7.103-5.509-6.772-18.817,1.658-23.161c14.841-7.647,25.964,10.279,13.067,21.059c-8.454,4.831-0.818,9.66,0.622,14.969
	c-0.001,1.697,4.524,1.613,7.284-0.137c15.285-6.779,33.196,12.323,51.126-5.676
	C1425.861,880.315,1419.806,863.286,1406.767,863.286z"/>
<path d="M320.397,286.68c-11.929-5.092-22.345,9.377-11.203,15.562c2.591,1.438-0.208,2.815-3.752,1.845
	c-21.264-14.611-44.799-72.485-74.74-142.101c-9.658-21.69-9.616-21.239-2.476-26.351c5.568-3.988,9.203-4.723,6.033-1.221
	c-9.907,25.582,49.923,19.223,17.023-14.86c-11.857-7.29-23.259-5.298-30.595-1.316c-6.313,4.664-6.06,4.807-8.941-3.142
	c-6.074-14.213-14.134-30.31-19.052-44.592c0.991-4.42,68.796,8.443,86.33,25.322c-14.388,0.965-11.258,21.541,0.018,23.411
	c14.488,5.228,25.135-9.964,18.481-26.33c-1.757-4.893-0.234-12.042,3.224-15.123c6.05-5.39-1.163-14.705-7.61-9.829
	c-12.727,7.793-20.236-9.889-10.772-15.469c4.806-7.217,28.264,11.467,24.238-5.166c-3.864-13.561,5.322-53.698-22.389-44.833
	c-10.145,4.896-10.55,20.254,3.006,21.999c4.616,0.594-8.617,9.404-9.985,10.169c-14.811,8.275-56.436,10.069-72.898,10.456
	c-21.807,0.512-24.642,0.03-24.642-4.198c-1.53-5.221-7.374-17.822-9.249-23.109c0.691-8.418-7.82-14.757-9.745-2.817
	c-1.672,5.257-8.112,33.375-13.961,32.028c-22-1.892-65.144-1.405-84.521-11.529c-2.864-0.526-26.506-10.172-17.467-14.759
	c10.426-17.297,0.403-20.71-15.998-15.77c-9.837,5.087-3.021,29.64-8.077,39.34c-4.404,8.449,4.203,15.148,10.882,8.469
	c6.942-3.998,14.622,5.166,12.714,13.267c-7.61,19.003-20.171-6.297-26.73,12.716c1.986,8.61,5.301,5.811,2.247,22.708
	c-4.956,24.433,26.623,29.5,28.908,7.629c-2.014-11.814-19.7-3.492-0.958-17.594c20.397-12.617,78.956-27.124,93.957-21.868
	c-4.914,15.657-10.057,27.862-17.485,47.365c-5.966,16.866-2.729,8.64-23.516-0.701c-14.864-4.95-40.312,5.414-29.64,26.317
	c4.941,11.478,26.641,8.428,26.641-3.746c0-9.861,16.929,10.137,12.912,11.183c-20.373,49.341-41.267,101.69-72.91,143.896
	c-1.435,1.896-7.938,13.01-9.002,5.563c-0.001-8.4-17.17-12.014-22.202-7.306c-9.406,8.8-8.763,25.274,3.055,31.747
	c5.025,2.525,27.147,3.786,27.147,1.547c5.721-3.236,19.419-5.142,24.809-1.136c8.836,6.292,16.03-1.633,8.297-9.138
	c-14.371-11.045,3.214-28.845,15.552-24.031c9.101,1.685,14.101,17.358,5.781,22.516c-6.875,5.087,1.241,14.758,9.658,9.039
	c3.199-4.81,39.158,2.762,42.173,0.998c12.651-2.59,20.626-16.495,11.015-28.228c-21.033-16.892-17.666,23.554-27.38-0.635
	c-11.318-7.66-4.316-104.09,10.096-118.877c-0.001,0.832,1.277,3.275,2.839,5.431c2.7,3.204,11.526,23.922,13.212,27.299
	c3.843,6.035-10.914-1.847-12.566,7.427c-10.8,23.929,15.874,17.826,13.317,23.935c1.423,17.503,27.267,18.472,29.152,0.763
	c0.515-4.361,0.783-4.703,4.969-6.336c15.778-6.627,9.071-25.219-5.926-25.498c1.505-7.219,9.493-22.759,13.251-29.916
	c3.383-5.302,2.683-6.408,8.354,13.197c7.69,28.015,23.488,116.334,5.923,111.107c2.214-21.939-28.784-7.023-19.81,9.178
	c1.123,2.423,2.312,5.206,2.642,6.183c1.253,3.715,20.642,8.341,20.642,4.924c0-4.065,16.435-4.224,20.839-0.201
	c11.21,10.239,15.751-9,11.696-9c-11.644-8.305,3.8-29.28,17.465-18.987c13.961,13.884-4.263,20.46,4.904,26.919
	c12.319,6.412,6.961-8.375,31.596-2.771C325.223,327.357,341.236,297.555,320.397,286.68z M177.218,170.487
	c-3.439,7.164-5.874,15.671-10.454,22.186c0.529-0.753-6.621-14.259-7.333-15.71c-4.297-8.757-16.358-19.173-15.779-29.36
	c0.557-9.816,7.816-17.786,9.598-27.292c-0.273,1.387,8.474-40.139,10.057-45.325c0.845-4.678,9.96-7.768,9.245-3.134
	C192.894,155.092,196.189,139.473,177.218,170.487z"/>
<path d="M839.843,227.872c-16.593-3.056-11.84-29.524,5.88-21.427c8.883,6.446,14.674-8.347,5.493-10.522
	c-5.769-1.584-9.538-7.929-14.397-13.8c-37.182-53.787-54.979-17.039-24.769-50.584c6.693-10.996,10.292-22.259,19.679-35.22
	c3.399-4.528,3.467-5.341,0.95-11.336c-1.318-3.138-4.549-3.604-8.667-1.25c-15.32,9.209-17.01-24.412-0.294-19.472
	c10.21,2.234,13.08-10.564,3.031-13.521c-5.703-1.679-12.295-7.177-19.192-16.007C752.4-33.499,680.511,23.519,663.44,3.115
	c-6.173-4.077-14.285,6.357-7.646,11.731c7.773,8.135,2.578,19.344-8.985,19.382c-3.997,0.342-6.25-3.295-8.188-3.995
	c-3.4,0-2.226-13.502,1.281-14.737c11.807-3.349-2.287-20.146-9.348-12.185c-12.759,8.646-22.754-4.95-37.731,1.283
	c-20.184,9.081-14.785,31.395,3.541,34.728c5.851,7.134,6.622-9.687,6.974-12.952c-0.872-3.332,1.093-2.525,4.793,1.968
	c15.981,25.022,14.576,37.807,17.2,80.622c0.347,20.228,0.347,20.228-4.957,21.77c-18.364,5.339-18.913,29.482-0.862,37.927
	c10.016,4.305,2.643,15.838,4.006,33.075c-2.035,36.216,0.261,64.589-14.171,95.256c-3.606,5.807-7.672,9.164-7.261,5.994
	c1.334-10.273-14.382-11.665-19.945-1.767c-6.038,12.98,3.969,26.521,15.87,25.364c11.543-3.447,24.284-13.696,35.98-1.863
	c4.857,7.123,17.208-7.805,8.519-11.775c-9.659-6.501-7.258-22.729,5.271-23.466c11.48,1.541,15.605,11.972,8.353,21.124
	c-6.627,8.363,1.067,18.22,8.281,10.607c9.931-10.479,22.694-12.259,44.596-6.216c12.18,3.361,50.473,4.841,63,2.435
	c26.882-3.372,53.798-22.888,64.655-41.222c4.775-12.713,5.503-7.745,10.389-27.142c1.209-4.772,4.682-10.612,7.069-11.89
	c2.795-1.496,2.32-5.583-1.071-9.211C849.898,224.582,849.792,224.582,839.843,227.872z M771.043,281.096
	c-25.977,30.203-79.728,19.252-90.49-19.364c-6.981-21.464-22.274-86.059-6.274-96.001c18.783-9.688,17.12-31.547-2.737-36.016
	c-12.26-8.623-5.189-82.242,13.47-96.981c47.813-41.8,96.848,5.284,96.032,60.948c6.437,64.437-51.12,51.647-20.354,26.029
	c14.697-13.617-44.008-18.527-36.851,10.244c1.153,5.152,0.562,6.278-3.295,6.278c-6.064-1.507-21.545,15.434-28.153,13.999
	c-9.589-0.893,14.156,13.633,15.071,15.002c2.899,2.89,10.756,6.571,18.032,5.656c10.898-1.501-8.04,18.932,24.314,25.844
	c6.373,1.026,32.089-5.664,15.822-10.501c-9.543,0-12.701-15.131-4.09-19.598C808.445,159.547,806.98,259.252,771.043,281.096z"/>
<path d="M1347.745,262.581c8.584,5.774,14.637-12.078,5.129-12.87c-3.608-0.863-4.357-4.117-2.747-11.945
	c3.289-18.576-0.485-37.585-21.21-37.301c-15.291,2.879-16.217,24.437-1.057,24.582c3.635,0.035,4.25,0.344,4.25,2.137
	c-6.811,45.616-57.568,76.292-98.62,42.488c-44.586-47.647-45.376-145.218-12.5-199.084c18.445-28.176,66.327-37.499,87.664-11.792
	c19.945,19.281,27.683,34.44,18.745,36.718c-7.706,1.964-9.53,10.794-3.48,16.844c11.548,11.548,31.214-6.958,24.065-22.646
	c-1.952-4.284-0.197-11.584,3.659-15.221c6.602-4.333-0.623-16.377-7.759-10.408c-22.252,9.432-20.315-30.314,1.631-16.495
	c8.271,5.613,17.125-3.511,9.572-9.866c-3.246-2.731-5.758-16.49-3.686-20.191c0.114-10.142-13.369-18.342-22.746-11.486
	c-13.467,21.766,21.05,14.376,0.12,22.538c-8.219,2.791-17.02,2.112-37.165-2.865c-45.019-11.992-102.007,12.525-129.063,55.872
	c-7.197,9.493-13.572,27.988-18.428,40.228c-1.388,8.622-13.298,12.373-11.121,21.477c1.952,5.133,6.177,6.189,10.502,2.623
	c12.908-10.64,33.309,8.462,24.366,22.814c-9.688,23.99-23.255,1.884-34.302,9.808c-8.711,6.291,16.42,23.64,15.479,34.049
	c11.735,59.327,71.31,106.722,131.068,90.987c12.451-2.521,34.236-7.689,44.112-2.303c11.004,3.871-13.458,11.488,3.637,24.211
	c15.747,5.512,26.457-9.399,23.756-26.668c-0.57-2.768-0.385-4.233,0.693-5.501c6.392-7.512,1.698-18.508-5.992-14.034
	C1322.915,292.199,1330.027,252.625,1347.745,262.581z"/>
<path d="M2326.404,269.42c5.494,4.848,12.356-9.315,6.565-10.375c-3.883-0.957-8.539-9.591-9.637-17.873
	c-0.199-12.779-19.119-19.672-25.233-7.834c-2.165,5.99,1.655,14.666,6.46,14.666c11.049,7.062-24.98,54.611-52.065,25.92
	c-42.704-33.883-8.376-126.105,47.106-86.958c6.915,7.082,6.728,6.62,3.26,8.057c-11.59,4.801-3.62,18.982,10.668,18.982
	c15.081-0.334,10.603-14.779,11.919-26.278c7.286-4.117-0.262-16.436-7.734-12.625c-21.126,7.559-19.866-30.046,1.353-18.984
	c6.131,4.367,9.655-2.393,5.257-10.088c-4.604-4.575-0.748-31.43-8.969-32.448c-11.971-12.198-28.748,7.754-13.378,17.452
	c8.528,3.532-3.698,17.412-18.691,21.217c-62.475,12.063-66.492-106.019-12.42-104.598c22.106,0.206,35.905,25.352,29.974,25.352
	c-25.564,11.139,17.101,39.142,18.821,5.692c-0.096-6.267,0.234-7.693,2.567-11.082c3.884-5.642-0.146-12.378-5.85-9.78
	c-9.366,4.267-16.39-7.904-7.569-13.115c3.843-2.27,4.956-2.177,9.312,0.784c7.506,5.101,12.928-0.33,7.567-7.581
	c-5.123-7.975,1.921-36.897-16.468-33.903c-14.372,0.054-15.074,15.938-0.875,19.824c10.213,2.795-5.587,6.495-26.776,6.271
	c-27.629-0.292-38.657,4.854-63.301,29.54c-21.764,22.255-55.727,72.36-66.132,91.644c-13.561,17.798-6.481,24.261,2.968,38.204
	c20.12,32.734,54.93,88.421,87.646,106.355c6.816,4.756,32.466,8.544,37.366,5.515c6.107-3.775,29.648,1.84,24.79,5.912
	c-14.44,26.579,31.317,27.586,25.446-8.227c4.094-4.52-1.303-13.499-6.253-10.408
	C2306.063,293.333,2308.558,263.157,2326.404,269.42z M2220.654,173.204c-4.851,0.902-14.537,30.182-16.395,23.501
	c-20.717-36.177-11.004-28.936-4.354-49.87c7.431-18.219,6.492-4.876,12.62,3.739
	C2215.488,159.287,2231.02,165.299,2220.654,173.204z"/>
<path d="M1873.433,178.237c-27.922,19.427-30.075-41.507-4.736-26.127c1.714,2.776,12.476-1.188,12.476-4.596
	c-20.583-20.008-28.114-57.749-44.457-79.616c-43.267-61.833-124.16-56.658-191.207-33.767c-16.927,4.593-49.739,0.821-39.39-4.53
	c24.999-21.185-25.24-32.411-20.019,3.813c0.12,9.843-0.111,11.335-2.514,16.247c-4.228,8.641,1.732,14.116,8.6,7.9
	c13.662-9.846,22.917,20.919,3.104,19.27c-23.604,4.625-3.161,10.41-4.564,16.58c-10.979,36.035,21.604,36.875,23.448,18.17
	c-5.701-11.472-11.865-3,3.246-23.962c15.278-27.089,50.06-40.927,77.477-49.154c2.493,2.491-15.357,7.284-29.336,22.413
	c-30.034,24.713-28.711,61.496-58.929,80.144c-15.257,4.338-5.175,18.551,4.738,12.061c8.398-4.721,20.802,4.136,20.802,14.852
	c3.493,25.083-53.818,7.771-24.68,32.039c20.094,15.53,12.398,26.977,25.827,50.598c73.197,128.751,188.828,71.837,223.742-7.577
	c8.043-18.295,10.337-38.856,23.765-54.477C1885.308,184.365,1878.073,174.304,1873.433,178.237z M1807.767,256.073
	c-15.625,34.019-52.592,58.318-89.213,42c-11.271-4.101-20.492-18.361-26.878-27.595c-29.941-41.862-39.628-131.373-18.479-176.08
	c26.415-55.84,83.593-62.426,116.353-30.822C1832.692,105.318,1831.821,221.297,1807.767,256.073z"/>
<path d="M234.461,1452.91c-0.888,6.352-9.44,4.866-18.487-3.212c-17.024-9.841-28.29-45.592-17.915-62.734
	c4.395-9.705-0.525-12.863-9.348-5.998c-9.873,7.682-22.279-1.446-16.389-12.058c2.342-4.218,14.192-7.383,16.098-4.299
	c5.8,2.997,11.446-9.304,2.655-11.398c-8.191-3.432-18.399-16.066-21.087-24.586c-9.983-15.501,2.734-57.763,23.759-56.716
	c3.731,0.323,3.731,0.323,0.117,1.951c-7.651,2.147-5.897,16.676-0.332,18.703c41.914,16.011,24.329-71.16-31.265-22.859
	c-33.151,38.126-4.111,108.132-9.682,149.999c-7.609,32.279-43.477,33.044-51.577,1.497c-10.159-27.791-11.266-56.179-12.469-92.497
	c-2.285-16.475,12.854-7.778,18.251-17.44c7.87-8.961,0.65-27.527-11.335-29.151c-8.846-1.198-8.197-0.365-7.895-10.139
	c0.782-9.054,2.583-62.378,15.236-68.691c17.206-8.585,66.275-7.228,78.114-13.579c20.782-7.401,17.324-40.694-8.416-34.007
	c-4.504,1.714-7.361,10.606-4.954,15.43c1.904,12.015-56.78,6.87-80.624-8.542c-10.35-6.69-20.367,0.968-12.446,9.515
	c17.026,26.974-35.676,19.917-13.461-1.688c4.057-3.641,4.178-4.308,1.71-9.458c-4.797-6.432-16.139,4.215-25.544,0.943
	c-25.946-9.655-47.713,9.255-31.719,27.557c5.898,6.749,18.751-1.758,15.515-10.268c-2.188-5.756,28.103-7.474,29.312,88.766
	c0.307,14.037,0.807,12.966-6.644,14.227c-6.692,1.132-8.366,2.449-11.085,8.717c-8.401,18.299,2.774,26.558,16.689,28.67
	c2.09,12.949,1.78,82.056-6.299,107.274c-0.239,4.214-17.089,39.285-16.832,24.71c-1.025-17.438-25.252-12.742-24.131,5.919
	c2.775,34.294,35.991,8.137,49.937,16.692c7.274,5.043,13.444,0.64,9.556-6.816c-16.034-31.053,26.931-29.079,18.08-4.718
	c-2.462,2.725-2.508,11.078-0.063,11.078c4.213,0.594,4.214,3.406,10.07-0.613c16.074-9.644,52.572-13.32,65.916-1.067
	c5.055,4.641,13.532-0.915,10.923-7.159c-4.394-12.844,4.101-26.828,18.077-17.658c12.082,9.324-4.394,18.365-3.632,26.113
	c1.076,2.355,8.405,3.642,9.298,1.633c2.201-4.952,14.216-6.351,26.333-3.066C278.525,1487.518,252.027,1417.108,234.461,1452.91z"
	/>
<path d="M2380.941,1275.081c-2.505-4.483-5.475-6.101-6.917-3.768c-4.471,7.234-19.701,3.026-23.687-6.545
	c-5.449-13.083,10.427-29.199,19.665-19.962c3.796,3.796,6.216,3.033,9.64-3.042c3.042-5.397,2.958-7.896-0.302-8.931
	c-24.124-23.086-24.063-56.618-68.359-72.566c-36.415-14.385-62.854-2.353-88.308,0.774c-6.438,0.791-24.932,0.982-28.889-4.031
	c-2.293-3.926-5.832-2.898-9.221,2.678c-2.547,4.19-2.843,3.345,3.671,10.467c7.932,8.671-10.907,23.21-19.256,14.861
	c-4.428-4.428-4.246-11.443,0.478-18.447c5.269-7.813-3.404-14.27-12.848-9.564c-5.798,2.889-11.251,3.252-19.449,1.292
	c-19.636-4.693-36.34,14.104-25.75,28.977c6.741,9.467,22.075,6.091,22.075-4.86c0.173-13.346,19.502,6.114,23.5,39.466
	c6.337,36.297,6.065,64.679-0.628,65.637c-15.582,2.229-23.665,20.343-14.115,31.633c8.138,12.428,19.591-0.153,16.682,24.029
	c-1.308,55.131-7.617,84.175-22.198,102.195c-20.146,24.237-7.949-1.858-28.186-1.004c-17.529,3.206-14.205,28.718,4.303,33.041
	c16.351,3.246,35.122-16.203,51.593-3.789c5.673,3.775,11.485-7.5,5.645-11.682c-18.905-36.891,45.624-26.901,21.406,1.441
	c-7.45,2.06-0.269,16.237,6.19,9.388c5.604-3.986,21.113-4.218,28.695-0.428c25.941,16.798,63.445-15.617,33.114-31.482
	c-6.093-3.503-18.999,6.203-14.866,11.183c1.443,1.738-0.576,4.338-3.368,4.338c-9.463-2.266-29.021-32.542-31.542-46.001
	c-8.618-22.943-7.55-46.79-10.053-71.499c-4.258-19.833,11.123-11.052,17.107-18.401c13.072-11.802,2.657-33.174-12.59-33.255
	c-4.19,0.7-4.508-0.911-4.162-21.135c0.851-49.756,11.872-76.204,35.948-86.263c81.519-30.399,120.203,98.599,69.025,145.171
	c-14.816,11.464-41.049,2.55-48.733-15.992c-13.612-34.934,23.061-47.407,17.297-20.661c-3.527,2.177-0.177,4.324,5.887,3.774
	c26.352-2.389,28.623-39.738,2.417-39.738c-4.714,0-4.714,0-2.653-2.25c28.004-33.782-39.075-69.397-26.217-47.49
	c8.385,7.397,8.64,14.41,0.904,24.694c-4.962,4.509-7.556,17.096-9.026,8.518c-5.005-14.498-29.449-7.917-33.825,9.106
	c-3.202,12.456-1.966,14.842,5.339,10.301c29.217-18.023,9.481,65.294,31.397,79.293c37.773,43.11,106.124,14.218,119.317-34.173
	C2369.306,1286.188,2388.635,1288.226,2380.941,1275.081z"/>
<path d="M1875.454,1297.181c2.285,0.682,3.189,0.376,5.101-1.687c8.827-6.653-8.577-11.487-8.896-18.467
	c-4.029-9.608-7.398-17.619-10.983-27.45c-47.603-124.361-212.957-129.289-256.063,3.976c-6.493,19.413-10.506,27.311-16.397,32.279
	c-10.923,9.211-3.489,19.792,7.959,11.328c27.553-10.586,26.807,41.399-1.002,32.079c-10.263-8.461-19.417,4.653-9.655,10.024
	c20.538,12.555,19.147,35.775,31.324,53.716c5.408,8.669,13.92,23.715,19.147,31.956c8.887,11.04,27.58,29.343,36.724,34.587
	c41.392,31.208,116.859,15.624,150.718-22.428c41.962-49.494,39.255-89.169,53.361-93.505c6.252-3.299,2.556-6.293,0.878-10.832
	c-0.766-3.492-1.653-3.659-5.878-1.103C1837.619,1342.671,1834.891,1285.075,1875.454,1297.181z M1817.46,1333.27
	c-11.198,168.954-161.118,154.064-167.877-7c0.717-73.507,4.638-128.533,64.302-149.964c30.145-7.543,58.315,3.828,78.812,32.463
	C1818.038,1243.013,1820.606,1285.8,1817.46,1333.27z"/>
<path d="M914.133,1454.607c-3.758-12.928-17.24-17.1-22.396-6.932c-4.693,11.54-8.925-6.685-12.115-10.679
	c-12.909-29.47-16.783-81.169-17.072-117.734c4.756-3.42,12.53-1.319,15.588-8.49c9.5-12.453,0.799-30.848-14.589-30.848
	c-4.96,0-5.887-5.11-3.447-19c0.487-17.041,2.487-36.941,7.82-50.74c4.155-9.691,17.977-41.466,24.826-33.356
	c25.703,14.878,30.489-34.623-11.763-20.455c-11.799,5.873-22.721-9.535-27.781-0.927c-0.514,3.981-7.902,7.351-3.24,11.137
	c7.737,9.286,4.37,19.341-6.476,19.341c-10.67,0-15.11-11.717-7.02-18.525c3.731-3.139,3.891-4.558,0.965-8.516
	c-9.537-8.461-17.992,4.309-30.144-1.88c-13.111-9.645-15.795,19.516-20.67,26.338c-4.299,11.505-30.137,69.577-64.707,160.474
	c-3.484,13.079,2.596,13.672-78.327-162.681c-18.513-44.605-5.296-14.593-36.965-21.208c-10.56-5.793-16.267,2.873-13.068,8.999
	c10.396,8.189,3.689,24.191-8.305,19.818c-17.354-9.344,2.379-18.22-3.594-25.066c-4.229-7.692-6.65-8.795-9.56-4.354
	c-7.63,10.515-32.028-6.679-44.015,4.604c-20.383,16.324,8.798,38.802,17.542,16.948c-0.002-4.928,21.417,2.877,24.64,84.49
	c0.603,15.259,0.603,15.259-5.368,15.8c-21.502-0.371-22.268,36.354,0.204,33.967c9.836-1.045,5.662,17.485,5.379,22.567
	c-0.93,15.624-3.975,117.834-24.84,114.265c-10.236-13.059-25.136-0.257-23.643,14.056c1.551,6.343,13.081,14.314,17.126,11.906
	c7.542-3.288,20.129-8.508,28.501-3.141c5.339,7.736,20.54-9.843,14.745-11.862c-9.993-9.635-0.054-27.12,13.019-21.089
	c8.13,1.974,6.036,8.015,7.742,13.35c0.709,4.466-7.279,12.135-4.398,14.597c6.596,11.033,17.181-1.03,28.814,4.329
	c10.551,2.233,22.05,2.109,27.15-5.434c17.332-20.226-16.146-40.653-21.189-18.002c1.016,6.264-17.397-8.815-24.393-87.749
	c-2.036-22.998-2.204-45.933-0.345-47.111c22.957,1.984,27.802-30.068,3.854-35.842c-10.054-1.154,4.757-67.491,5.518-76.296
	c0.181-15.543,16.437,24.156,17.484,25.814c33.607,59.403,56.412,111,68.201,128.457c12.936,14.713-11.484,3.613-13.388,14.041
	c-0.743,1.676-3.175,3.906-5.849,5.361c-16.591,10.603,1.859,8.399,9.953,16.135c3.418,4.655,11.153-1.952,9.409,4.819
	c-3.163,2.569,9.175,15.818,10.675,21.274c-0.001,6.098,5.49,6.405,7.959,0.445c4.797-8.908,16.931-9.36,14.015-21.67
	c-1.358-4.117-0.917-5.001,1.778-3.558c4.077,4.606,17.451-11.696,22.279-12.224c7.702-2.031,9.662-7.252-2.031-8.101
	c-6.384-1.987-15.572-12.262-21.404-9.403c-9.351,6.305,64.854-155.83,69.524-165.97c9.041-6.006,19.059,56.841,19.55,70.033
	c4.021,17.845-14.808,8.291-19.17,21.799c-4.923,7.639,0.483,26.911,14.011,25.998c9.769,10.68-1.484,144.138-20.039,131.547
	c-10.665-7.238-21.33,6.289-15.564,19.741c2.515,5.868,23.684,10.416,26.591,5.713c4.129-1.344,11.102-4.479,15.852-2.315
	c7.319,6.131,17.96-0.207,12.012-8.368c-8.018-5.252-6.797-17.353,2.094-20.748c13.939-5.323,23.598,9.383,13.133,19.997
	c-7.371,7.476-2.55,15.452,6.439,10.653C876.535,1466.074,921.345,1485.662,914.133,1454.607z"/>
<path d="M1415.765,1446.475c-4.975,2.718-9.934,11.33-16.287-1.357c-14.445-28.846-17.418-90.547-18.342-116.952
	c-4.401-24.323,18.283-7.293,19.059-29.219c1.096-8.042-7.465-18.197-13.919-16.509c-5.553,1.452-7.067-1.486-6.877-13.349
	c0.427-26.749,1.385-50.365,2.209-54.5c7.226-36.255,17.295-42.829,19.561-36.923c33.252,21.368,31.351-40.657-8.343-19.501
	c-10.168,5.971-20.136-7.306-25.52-0.39c-9.608,7.34,16.951,14.903-3.306,27.451c-11.496,5.229-21.197-8.148-12.01-16.563
	c3.368-3.085,3.691-3.803,3.108-6.911c-7.014-15.72-8.474,3.872-28.228-6.219c-17.803-10.046-44.088,16.964-21.445,27.23
	c3.684,1.301,6.198,0.561,9.077-2.674c11.399-12.813,27.769,32.928,29.777,83.2c0.829,20.76,0.939,20.428-6.955,21.024
	c-22.698,1.713-18.76,31.776,4.162,31.776c4.618,0,4.213-2.084,4.02,20.709c-6.431,139.444-4.462,107.081-67.604,5.669
	c-44.748-78.131-92.547-142.155-99.602-181.818c0.001-4.606-1.189-5.085-7.385-2.973c-7.735,2.636-17.528,2.442-21.408-0.426
	c-6.657-4.92-14.642,4.555-10.512,12.474c4.975,9.539-3.005,19.295-12.549,15.342c-6.741-2.792-6.695-17.977,0.055-17.977
	c1.742,0,1.082-5.082-1.184-9.114c-3.875-6.894-9.715-0.108-14.701,2.229c-6.314,2.958-20.196-1.908-29.206-2.615
	c-4.502-0.353-9.197,1.436-13.212,3.24c-19.902,11.463,1.024,39.08,13.219,21.152c7.358-11.124,14.235,10.211,18.894,22.607
	c8.418,24.063,13.08,80.692,6.69,81.276c-13.047,0.113-23.778,18.156-12.65,28.446c12.386,12.926,19.492-4.846,15.738,26.919
	c-1.871,24.305-1.321,37.174-5.495,59.861c-0.717,10.015-14.486,64.835-24.431,51.394c-13.419-15.644-33.554,11.445-15.544,22.232
	c14.729,9.924,31.822-8.007,47.399,0.383c7.775,2.953,14.862-3.631,9.585-8.908c-8.377-7.62-1.14-25.956,9.399-21.102
	c22.55,3.719-7.044,34.497,17.942,28.703c13.014-6.218,35.676,9.305,41.613-4.78c10.259-14.204-11.108-26.314-18.534-12.991
	c-6.748,3.865-13.913-24.65-16.028-31.21c-6.481-22.127-8.884-101.64-2.992-105.507c20.446-3.114,22.184-31.75,2.077-34.215
	c-8.832-1.083-4.14-79.45,5.193-86.742c4.8-2.591,71.331,113.209,162.656,270.505c3.571,10.57,16.292-3.591,24.21,3.2
	c8.64,4.058,15.338-3.306,9.62-10.578c-17.229-24.528,32.068-24.989,17.392,0.714c-4.574,9.664,1.216,15.696,9.443,9.837
	c9.399-6.692,37.105,7.256,45.548-3.028C1437.802,1458.446,1426.39,1440.671,1415.765,1446.475z"/>
<path d="M1876.299,1791.734c-7.435-10.462-23.717,19.22-27.854-7.757c2.501-22.485,20.125,1.74,27.806-6.915
	c2.887-2.597,2.972-9.252,0.118-9.252c-5.562-1.195-0.836-31.558-7.323-33.68c-9.136-9.756-27.514,1.634-20.279,12.568
	c1.455,2.198,2.346,4.479,1.982,5.069c-110.654,40.845-244.798,7.225-233.772-0.498c18.906-23.921-36.995-30.906-24.532,5.237
	c6.832,12.283-8.856,31.377,5.911,28.735c8.565-11.055,26.727-3.997,21.339,9.983c-3.481,8.328-15.926,9.551-19.666,1.93
	c-1.967-10.758-20.624,5.392-12.731,8.506c16.246,9.583-8.868,47.144,20.427,46.619c18.73-0.663,20.754-21.833,5.496-26.272
	c18.667-17.536,75.654-25.944,92.099-26.787c7.597-0.655,7.597-0.655,7.838,16.717c0.691,49.975,3.662,44.481-3.101,46.927
	c-21.44,8.316-17.636,35.642,1.798,39.943c2.512,0.001,2.512,0.001,1.904,11.751c-7.03,57.009-0.609,86.849-35.282,120.994
	c-2.751,1.815-7.255-0.479-7.255-3.694c-2.684-12.297-27.58-2.762-21.093,11.786c3.77,31.822,44.985-2.332,61.449,15.779
	c2.988,1.658,2.805,1.698,6.666-1.461c5.908-4.66,12.197-5.795,3.977-14.273c-9.207-9.488-0.745-23.931,12.56-21.435
	c7.926,1.487,10.609,10.812,5.855,20.351c-4.766,8.365,1.245,17.102,10.774,12.4c7.419-2.606,14.819-2.78,23.312-0.55
	c72.777,20.469,34.398-55.09,18.22-17.912c-21.301,11.695-38.979-82.234-38.322-102.734c0.051-30.231-5.282-31.632,5.87-33.473
	c18.019-2.996,20.17-27.303,3.201-36.136c-5.97-3.108-5.97-3.108-5.881-16.5c0.011-24.521,1.098-28.461,2.19-39.362
	c8.804-21.783,54.009-5.549,76.046,0.469c1.531,0.001,19.175,10.228,19.175,11.114c-8.435,3.283-13.826,20.87-3.784,22.888
	c4.705,5.084,22.644,0.249,23.783-7.614c2.347-4.935,0.366-17.253-1.911-26.326
	C1869.73,1802.031,1885.072,1799.333,1876.299,1791.734z"/>
<path d="M2377.972,2024.677c-18.157-7.052-10.782,17.51-18.128,9.973c-12.226-5.266-21.912-49.244-22.157-57.296
	c-3.183-15.493-4.928-22.242-5.545-65.897c-0.468-22.703-0.602-22.275,7.015-22.275c8.023,0,16.266-9.488,14.931-17.188
	c-1.074-6.654-6.866-16.63-18.675-18.646c-9.767-10.723-2.838-62.674,4.378-80.165c0.961-4.574,11.191-23.754,13.868-20.321
	c0.085,6.403,14.115,8.896,20.075,3.57c5.374-4.802,4.221-18.399-1.755-20.692c-10.295-4.606-39.006,5.636-46.626-0.306
	c-9.051-4.44-14.872,3.054-7.714,9.932c19.73,22.806-30.253,29.683-19.142,4.994c5.679-7.074,5.71-7.222,2.572-12.007
	c-5.205-7.936-3.199-1.383-21.696-1.215c-19.25-7.54-46.657,2.376-35.114,22.314c7.091,8.423,21.429,6.845,21.429-2.361
	c10.803-6.416,31.169,56.517,29.028,71.338c1.894,23.797,1.729,24.424-7.023,26.773c-18.581,4.987-18.043,35.345,0.683,38.51
	c7.8,1.318,7.527,1.008,6.879,7.811c-2.249,23.635-2.811,27.556-5.539,38.658c-14.155,113.821-128.635,125.455-141.579,11.998
	c-9.815-73.187,57.658-126.917,21.551-195.252c-25.125-46.964-81.017-8.618-62.306,26.019c4.847,8.973,18.051,10.423,25.463,4.478
	c6.315-5.065,9.149-14.762,2.691-20.915c-3.426-3.264-6.971-2.862-10.885-4.463c-2.89-1.182-1.059-4.092,1.438-5.465
	c22.522-12.388,31.646,15.691,29.594,33.328c-3.167,27.204-34.302,56.71-54.389,86.6c-0.872,1.297-1.78,3.576-2.967,4.56
	c-6.443,5.344,0.498,11.697,8.862,8.111c10.999-4.714,19.5,1.186,19.5,13.534c-2.913,32.709-39.573-13.15-31.913,19.148
	c13.872,51.869,10.844,89.752,62.659,122.167c66.703,38.019,98.183-23.375,132.786,5.454c4.709,5.089,5.149,5.19,9.476,2.191
	c11.319-5.005-13.229-32.052,11.677-32.462c8.389,0.069,15.873,15.914,9.403,19.913c-2.418,1.494-3.065,6.037-1.368,9.596
	c5.592,11.133,11.199-6.082,29.625,0.783c19.935,4.695,19.388,5.668,30.64,1.676
	C2389.179,2051.182,2387.578,2026.224,2377.972,2024.677z"/>
<path d="M311.473,2038.64c-5.351-14.809-5.335-14.743-4.055-16.823c6.61-7.463-5.806-15.477-10.94-8.5
	c-23.853,16.243-20.583-37.016,2.653-18.831c3.038,3.247,4.186,3.372,8.347,0.91c6.745-1.056-2.082-15.32-0.33-19.993
	c2.48-11.894,3.117-26.016-5.42-32.656c-13.917-10.939-36.008,14.194-10.75,21.69c-14.637,19.266-46.056,42.628-71.251,50.233
	c-22.935,8.634,22.822-12.659,43.114-47.268c8.747-13.74,14.801-26.281,22.033-41.173c2.794-14.545,28.479-19.402,14.906-31.691
	c-2.537-1.523-2.834-1.503-4.86,0.329c-31.109,13.756-26.38-39.822-0.616-28.072c6.961,5.786,15.999-7.783,9.923-12.082
	c-27.941-8.502-36.677-70.358-91.252-97.972c-30.094-13.313-32.161-1.841-35.069-12.716c-2.343-8.76-14.752-16.969-23.534-15.482
	c-23.206,3.929-13.579,19.019-25.394,20.125c-17.168,1.33-35.137,10.211-46.501,17.922c-29.168,20.308-44.663,52.286-60.538,80.103
	c-1.642,6.37-17.026,6.223-14.128,14.58c1.549,13.607,27.684,1.962,29.804,14.765c5.083,12.01-5.78,24.567-18.27,21.118
	c-22.389-3.87-4.944,18.725,2.584,26.36c20.225,35.818,16.402,70.583,89.883,113.052c68.529,28.366,106.771-15.787,168.665-6.473
	c6.565,1.955,12.434,8.225,7.692,8.225c-13.42,0.008-11.068,34.259,15.822,21.395C311.752,2056,314.46,2046.595,311.473,2038.64z
	 M192.978,2006.695c-32.696,25.277-75.964,5.857-94.324-24.38c-14.717-26.553-21.322-55.465-24.583-86.169
	c-2.925-21.008,0.34-40.242,3.906-59.975c4.556-26.483,28.214-56.07,55.923-62.847c-1.234,0.302,1.725,19.257,17.502,24.525
	c10.214,3.411,20.682-2.003,24.015-12.271c1.916-5.902-1.349-21.367,19.712-4.019
	C259.485,1834.572,257.651,1955.269,192.978,2006.695z"/>
<path d="M888.776,2034.708c-6.73-15.941-24.136-12.878-25.041,1.301c-14.787-15.812-32.967-80.284-47.026-104.801
	c-36.763-73.416-83.483-47.854-45.928-64.683c8.024-0.458,25.527-23.195,29.467-32.685c4.027-6.253,20.31-24.288,4.049-23.769
	c-1.987,0.373-3.944,1.199-4.349,1.835c-2.261,3.544-15.32,6.893-17.763-7.144c-2.2-12.644,15.515-9.058,21.25-11.352
	c1.193-0.477,4.815-2.879,3.612-4.738c-28.385-43.848-81.018-66.536-137.335-51.501c-22.177,4.913-29.376,4.795-36.083-0.595
	c-7.417-5.874-10.013-1.693-13.044,4.047c-1.672,2.542-1.645,2.654,1.209,5.159c8.288,10.475-1.269,24.294-14.916,18.327
	c-14.897-9.806,6.768-17.599-0.2-23.621c-1.122-1.121-1.773-2.467-1.448-2.991c1.417-2.292-6.203-4.409-9.082-2.522
	c-5.044,3.305-7.995,3.538-18.224,1.443c-56.464-10.426-22.697,50.698-10.213,20.358c0.015-9.839,33.244,15.214,29.616,104.153
	c-0.591,2.354-1.109,2.595-5.571,2.595c-16.991,0-22.244,31.941,0.948,35.001c13.816-0.441,0.994,83.483-4.091,100.536
	c-2.927,9.816-7.503,18.745-12.361,27.712c-3.139,6.508-3.136,6.506-8.709,3.663c-17.534-9.533-25.22,18.172-10.078,26.788
	c10.099,4.928,24.74-6.803,34.249-6.663c5.721,3.561,17.981,11.138,19-0.073c-4.031-7.845-10.416-18.234-0.031-24.45
	c11.353-5.871,22.794,7.16,16.027,18.258c-4.805,7.881,3.669,15.415,11.504,10.226c15.067-7.741,44.352,14.638,47.462-12.748
	c2.868-10.951-13.387-20.383-20.919-12.137c-3.217,3.522-4.339,1.23-6.611-2.088c-18.045-26.361-18.829-90.864-19.899-114.824
	c-0.773-14.887-0.544-15.791,4.217-16.684c14.725-2.762,19.541-19.743,8.868-31.269c-8.197-6.968-13.885-1.468-13.003-19.525
	c1.49-59.311,15.779-99.767,74.854-91.167c27.128,7.793,44.049,48.397,38.488,73.017c-4.382,27.912-36.118,48.551-41.526,27.006
	c-1.765-7.033,6.741-10.438,8.944-3.581c0.88,2.739,1.656,3.5,3.568,3.5c8.419,0,8.922-20.158,0.689-27.591
	c-7.475-6.749-23.271-5.376-27.277,2.37c-1.712,3.31-3.512,3.167-4.045-0.321c-1.643-10.767-25.682-25.588-33.088-20.401
	c-6.167,3.151,12.331,14.429,6.922,20.64c-4.861,15.399,1.434,35.996,12.031,39.359c2.548,0.809,2.272,2.323-0.624,3.424
	c-19.558,13.688,11.235,41.9,29.422,39.373c14.54-4.991-10.18-7.302-4.973-16.856c2.115-9.379,17.642-14.538,28.154-9.355
	c48.933,19.002,71.516,85.667,50.481,134.358c-5.878,11.469-5.826,11.437-10.421,6.607c-10.594-11.136-29.535,7.417-19.97,19.561
	c12.47,14.803,16.176,10.879,28.242,7.913c4.961-1.725,13.745-0.966,18.292,1.581c9.705,5.437,19.893-1.71,13.147-9.224
	c-24.548-33.949,37.016-37.498,17.073-2.314c-4.624,5.593-4.969,8.117-1.552,11.328c2.558,2.402,3.231,2.397,11.051-0.081
	C846.31,2049.072,896.835,2064.931,888.776,2034.708z"/>
<path d="M1381.529,1953.61c1.303-41.02-13.875-64.115-40.38-81.014c-31.58-20.135-63.812-16.458-85.795-15.143
	c-27.35,1.636-65.442,5.546-79.125-6.032c-38.538-35.299-2.273-79.691,38.358-86.76c36.989-11.733,95.967,15.133,115.6,41.388
	c4.714,5.901,4.711,5.861,0.621,7.812c-17.681,25.327,33.091,28.567,26.301-2.626c-2.37-6.239-0.448-11.451,4.258-11.535
	c6.942-2.162-4.129-19.334-11.763-10.042c-18.644,10.752-19.432-29.581,0.078-17.875c6.601,7.329,16.474,1.261,11.556-7.103
	c-2.386-4.059-2.655-5.515-2.675-14.511c3.052-29.547-37.888-25.741-23.478,0.094c-16.987,11.684-90.744-11.076-118.977-10.77
	c-64.633-6.639-123.196,57.754-104.513,123.679c27.889,89.088,128.19,35.515,191.047,53.684
	c49.43,18.983,30.49,90.346-15.826,109.815c-25.314,9.458-75.917,8.794-99.874-7.502c-32.207-21.106-37.629-32.663-48.283-56.62
	c40.932-12.579-21.99-50.321-17.838,5.445c0.247,13.722-0.76,17.677-5.63,22.081c-6.487,5.866,3.589,15.204,10.984,10.18
	c21.27-11.459,22.712,25.2-0.934,17.48c-9.08-3.76-17.479,2.714-11.057,8.525c5.193,6.185-8.51,25.091,7.572,32.128
	c13.282,8.994,30.258-2.614,20.662-16.866c-5.729-12.768,14.163-9.572,34.665,0.094c43.294,16.353,78.888,24.413,125.525,11.29
	C1349.961,2034.929,1379.939,2003.646,1381.529,1953.61z"/>
<path d="M880.135,2615.902c-3.072,10.147-16.188-24.915-20.381-61.208c-2.584-22.37-4.863-50.39-6.488-72.779
	c-0.753-10.372,24.511-4.467,22.882-25.435c-0.831-10.698-9.105-15.398-19.416-18.369c-12.824-3.695-6.473-27.667-3.901-58.461
	c2.432-29.117,13.038-55.848,17.846-44.985c4.247,9.594,23.155,4.782,23.155-5.893c-0.938-14.227-13.045-18.16-24.55-15.294
	c-9.242,9.057-23.148-6.507-30.599,4.776c-2.396,3.13-2.926,7.398-0.919,7.398c5.826,0,4.856,14.507-1.178,17.627
	c-10.323,5.338-22.076-10.306-13.247-17.633c4.677-6.207-3.221-17.397-11.287-9.363c-4.062,2.759-5.493,2.769-17.22,0.115
	c-26.344-9.724-40.668,28.055-13.629,31.257c12.988-2.883,5.624-28.09,23.951,13.497c1.888,9.892,16.677,78.66,0.819,78.475
	c-20.583,3.902-17.488,38.025,3.447,38.025c9.852,0,2.35,61.575-10.604,87.048c-50.202,87.496-69.885-68.481-56.04-85.049
	c10.488,0.001,18.368-3.854,20.017-9.792c5.394-22.324-7.02-26.188-22.083-29.459c-1.333-2.386-1.035-87.469,0.31-88.101
	c9.754-4.799,16.668-12.621,18.816-20.681c-1.609-5.942-3.771-8.288-9.251-4.598c-10.695,7.031-48.363,13.409-53.751,9.053
	c0.001-0.781,0.433-1.422,0.962-1.422c7.09-0.001,4.921-9.374,2.492-13.042c-5.664-8.554-22.545-6.567-28.546,0.692
	c-11.061,13.38,6.015,39.729,39.683,30.321c6.686-1.868,6.251-0.66-1.055,2.937c-27.949,13.76-50.725,90.092-63.676,90.092
	c-3.651,0,3.364,17.348,10.245,9.144c9.053-10.795,23.327-1.286,17.26,11.499c-5.137,14.002-19.611-2.503-27.177,5.105
	c-8.304,7.062,5.751-0.177,22.803,56.6c17.117,56.991,19.38,56.81,11.571,66.271c-5.895,7.143-18.617,13.22-28.067,11.093
	c-41.056-9.243-49.87-63.038-56.097-100.21c-5.496-62.272-3.489-114.61,42.349-159.292c14.672-14.775,11.206-20.69-7.748-13.223
	c-14.837,5.845-69.803,11.801-57.602,6.242c15.83-10.729-3.579-31.594-17.78-20.642c-8.453,6.519-9.803,22.324-4.05,30.916
	c14.947,21.749,63.066-4.627,42.011,15.703c-6.614,9.178-17.392,17.985-21.128,29.458c-8.921,16.505-15.225,43.525-33.002,51.491
	c-4.093,1.834-6.448,8.065-2.84,11.362c5.696,5.205,13.977-1.505,20.397,2.288c8.184,4.835,6.835,15.955-1.748,19.272
	c-41.524,0.526-9.656,11.301-7.183,35.772c6.711,52.665,54.481,145.269,147.925,112.84c22.718-5.212,49.749,0.49,77,0.314
	c20.661,0.021,26.449,0.872,33.722,4.959c8.179,4.597,14.876-1.574,9.343-8.609c-6.196-7.877,0.531-22.263,10.436-22.319
	c11.352-0.064,17.825,12.804,11.594,23.05c-4.575,5.293,4.61,14.688,9.086,10.665c2.869-2.714,8.072-3.408,11.79-3.958
	c14.955-2.209,17.219,5.304,22.326,6.022c6.876,0.966,19.18-6.088,18.878-14.267
	C900.506,2609.696,882.642,2603.449,880.135,2615.902z"/>
<path d="M1891.542,2320.222c-12.939-13.439-29.544,1.497-43.84-4.138c-8.809-4.014-18.359,4.314-10.21,8.902
	c11.128,6.265-2.096,19.681-15.545,15.771c-8.048-2.34-12.292-12.07-7.059-16.186c8.054-6.335,0.335-14.133-8.73-8.821
	c-4.315,2.529-15.689,2.762-17.178,0.353c-13.216-5.43-32.562,13.617-17.892,24.566c6.424,4.208,16.402,0.751,16.523-5.726
	c24.661,15.33,8.29,73.152-1.522,101.304c-16.384,49.086-39.366,69.854-85.522,80.013c-10.718,2.839-36.129,9.826-37.677,7.642
	c-5.196-24.998-7.639-171.098,10.75-187.655c26.772,29.871,37.97-31.123-1.59-18.529c-10.777,6.439-23.099-6.723-29.814,0.512
	c-10.397,10.353,16.616,11.16,2.15,27.704c-9.809,7.751-25.624-4.211-19.417-14.686c11.389-26.935-8.735-6.636-22.398-14.503
	c-20.397-8.002-38.66,5.498-31.877,23.563c3.411,9.083,22.876,7.688,22.876-1.64c19.064-13.383,29.603,161.79,32.612,183.43
	c1.648,15.095,1.506,14.427-3.6,18.92c-45.705,40.215-17.725,103.962,31.516,94.133c43.622-8.708,42.735-25.069,61.678-27.902
	c18.393,1.305-2.619,27.917,15.334,17.629c18.076-8.721,16.843-32.478-1.929-37.19c-5.739-1.44-0.377-0.323,3.31-9.72
	c3.112-7.931,3.568-16.544,5.625-24.749c3.779-15.072-0.948-5.168-22.562,0.68c-15.382,4.162-11.57,6.09-19.05,16.547
	c-1.739,2.431-2.548,2.404-2.936-0.721c-3.044-24.51-54.899-4.806-34.315,22.273c2.303,5.313,4.992,4.119,7.314-3.249
	c2.442-7.747,6.99-9.001,11.449-3.156c12.232,33.777-56.535,48.661-61.356,10.105c-11.79-56.294,82.04-55.611,118.01-65.54
	c21.321-5.385,42.53-16.091,54.852-30.325c38.559-37.605,47.111-137.729,80.115-166.585
	C1878.736,2352.608,1904.61,2338.333,1891.542,2320.222z"/>
<path d="M2286.964,2457.03c37.967-39.055,57.423-63.953,99.081-106.144c6.895-6.949,7.391-9.008,2.074-8.603
	c-29.3,2.198-250.983,13.81-277.463-5.852c24.517-26.209-26.459-31.122-17.875,1.599c2.009,4.805,1.11,10.511-2.136,13.56
	c-7.415,6.966,2.674,14.653,10.357,7.89c6.673-5.874,14.5-5.635,17.855,0.544c5.346,9.849-4.846,17.497-15.836,11.883
	c-6.305-3.221-13.197,2.862-9.986,8.815c2.614,4.846,2.822,7.397,1.68,20.576c-0.917,10.583-0.378,11.693,8.445,17.366
	c14.63,10.894,28.918-15.837,11.364-20.142c6.72-39.246,139.136-26.885,184.593-32.837c32.813-1.753,29.993-6.362-33.297,58.755
	c-26.319,30.785-15.939,5.449-38.122,15.119c-13.48,6.042-18.505,23.177-9.731,33.189c1.975,2.254,5.25-6.02-53.081,55.39
	c-34.874,36.716-43.548,44.833-66.14,66.333c-14.077,13.397-20.522,12.726,97.848,7.623c2.048-0.088,152.856-9.926,152.856,8.618
	c-21.973,7.32,1.627,34.85,20.404,20.002c9.948-4.943,1.518-22.022,5.336-29.375c3.169-6.074-3.478-13.158-9.377-9.996
	c-6.064,3.25-16.445-1.516-16.572-7.609c-0.177-8.485,9.727-14.224,16.553-9.592c6.839,4.641,14.863-8.361,8.41-13.627
	c-3.377-2.756-3.819-5.273-3.971-22.586c-0.08-9.168-18.205-14.03-24.974-6.699c-7.126,7.717-3.006,21.056,6.211,20.109
	c9.774-1.004-6.006,13.395-21.255,19.394c-43.247,10.633-134.806,10.409-168.954,12.07c86.264-87.744,81.655-85.177,87.549-81.883
	c13.9,7.055,27.293-2.285,31.857-14.683C2288.031,2471.876,2268.682,2471.379,2286.964,2457.03z"/>
<path d="M315.476,2315.198c-12.539,6.025-25.474-8.49-32.022,0.594c-10.851,10.527,11.977,14.998-3.357,28.505
	c-9.103,9.773-26.247-7.264-18.619-18.504c3.156-4.651,3.13-5.633-0.25-9.34c-8.852-9.851-6.168,7.102-36.016-1.274
	c-19.859-4.544-30.825,21.839-13.793,30.998c6.662,2.532,15.559-1.332,15.559-6.759c0-5.688,6.099,0.105,9.418,8.948
	c13.221,39.916-48.178,211.353-62.419,246.725c-0.934,8.226-6.422-13.227-6.999-14.275
	c-10.819-34.643-80.761-247.737-48.969-242.262c2.289,5.674,7.418,7.833,12.758,4.597c14.445-8.755,9.725-36.809-21.79-24.758
	c-10.382,6.699-19.339-1.99-26.342-1.256c-3.885,1.48-6.7,11.206-3.431,11.856c8.258,1.643,10.946,15.998,3.697,19.746
	c-11.643,6.021-24.514-7.878-17.03-18.389c5.473-6.822-3.466-18.282-11.102-12.461c-2.407,2.178-15.862,2.376-23.946,0.353
	c-16.094-4.028-28.245,12.756-18.819,25.993c3.659,5.138,15.951,3.182,17.446-2.776c14.959-36.273,118.883,278.778,129.434,290.813
	c5.464,6.232,22.722,11.181,32.776-12.283c1.846-4.309,2.8-8.878,4.462-13.226c2.509-6.565,5.595-13.031,8.245-19.577
	c51.894-128.21,58.102-153.138,82.831-202.058c15.604-30.868,34.024-59.224,31.045-47.83c-1.848,7.069,19.856,14.558,24.4-2.085
	C347.124,2318.793,320.851,2309.407,315.476,2315.198z"/>
<path d="M1417.272,2606.505c-20.053-16.027-10.191,18.03-32.401-11.751c-36.665-38.993-74.056-83.583-109.564-122.261
	c-5.908-5.745-6.131-5.365,7.063-12.051c28.978-15.727,50.599-30.996,67.577-57.487c8.121-5.719,31.298-76.628,36.667-66.152
	c2.007,3.917,10.562,6.205,14.566,5.467c12.853-2.368,14.706-27.029-5.841-29.438c-9.554-1.12-19.711,7.289-29.305,3.281
	c-7.714-3.223-15.774,4.289-10.647,9.925c18.987,25.632-33.544,25.638-18.774,1.826c7.636-7.633-0.54-17.689-9.753-11.995
	c-4.35,2.689-10.548,2.905-15.497,0.541c-18.521-8.849-39.494,12.83-25.594,26.454c22.802,15.398,14.449-19.676,26.272,2.126
	c14.317,29.84-18.168,86.5-47.603,102.492c-6.709,3.74-5.7,4.275-16.558-8.77c-10.99-13.107-21.274-22.767-30.285-35.52
	c-13.814-13.157-55.106-75.548-33.407-64.999c12.875,8.741,23.498-11.703,11.161-21.481c-11.996-8.253-23.301,5.414-35.504-0.682
	c-7.101-4.077-14.497,4.836-7.935,9.563c10.85,7.815-1.73,20.833-13.014,13.467c-13.574-7.591,8.01-27.778-15.123-21.778
	c-4.523,2.258-8.586,2.131-17.658-0.55c-19.083-5.639-37.446,7.669-25.5,18.48c2.842,6.681,9.225,10.583,17.66,4.346
	c13.273-6.569,58.179,50.518,120.703,123.8c10.657,9.161-14.125,13.221-20.359,20.9c-69.568,49.284-81.986,125.997-108.467,137.456
	c-3.032-37.184-43.81,3.852-10.971,15.328c6.725,2.61,37.495-9.117,41.423-2.684c6.45,5.427,14.732-1.454,11.086-9.21
	c-3.146-8.73,0.485-26.341,13.258-22.112c7.733,2.561,11.286,15.931,5.051,21.789c-5.746,5.398,2.204,14.011,8.89,9.631
	c7.802-5.723,32.208,4.266,37.252-1.77c6.687-2.674,11.684-10.928,7.41-20.874c-1.975-7.817-16.878-9.449-18.935,0.091
	c0.001,3.973-3.627,1.879-5.959-3.439c-12.04-20.984-7.084-77.617,53.147-121.338c8.85-2.57,4.405,3.278,14.841,12.3
	c8.163,13.57,34.667,40.161,67.272,91.569c4.886,8.28,5.252,23.071,0.451,18.271c-7.337-7.337-20.882-0.011-19.468,10.529
	c5.031,26.021,25.497,8.741,39.216,11.916c0.942,1.528,5.276,1.197,8.035-0.612c2.772-1.816,3.26-5.48,0.982-7.371
	c-6.973-5.787-0.213-21.014,9.329-21.014c12.385,0,19.675,15.137,11.591,24.069c-4.152,4.587,3.022,10.879,8.319,7.297
	c7.457-5.042,10.905-5.532,19.162-2.723C1410.442,2640.151,1434.572,2625.13,1417.272,2606.505z"/>
</svg>
