<?xml version="1.0" encoding="UTF-8" standalone="no"?>
<svg xmlns:rdf="http://www.w3.org/1999/02/22-rdf-syntax-ns#" xmlns="http://www.w3.org/2000/svg" height="2350.9" viewBox="0 0 3352.0467 2350.8748" width="3352" version="1.1" xmlns:cc="http://creativecommons.org/ns#" xmlns:dc="http://purl.org/dc/elements/1.1/">
<defs>
<filter id="a" style="color-interpolation-filters:sRGB" height="1.0203" width="1.0293" y="-.010171" x="-.014630">
<feGaussianBlur stdDeviation="13.923148"/>
</filter>
</defs>
<g>
<path d="m109.72 3309.7c-0.9891-39.592-35.333-76.244-71.442-76.244h-4.84v-41.5-41.5h3.5422c92.315 0 95.887-150.89 3.7559-158.68l-7.2981-0.6169v-32.673-32.673l8.8309-1.1757c88.423-11.773 89.723-143.65 1.5575-157.99l-10.385-1.6896v-36.75-36.75h3.5422c92.358 0 95.93-150.88 3.7559-158.68l-7.2981-0.6169v-41.353-41.353h3.5422c32.139 0 63.994-28.277 71.534-63.5 9.8209-45.882-27.203-95.5-71.259-95.5h-3.8163v-41.362-41.362l6.75-0.6838c91.163-9.2343 91.652-150.57 0.5481-158.27l-7.2981-0.6169v-41.206-41.206l7.385-0.6243c90.231-7.6273 90.222-150.71-0.011-158.34l-7.3744-0.6234v-36.728-36.728l3.125-0.625c1.7187-0.3437 4.3367-0.625 5.8176-0.625 15.126 0 39.423-14.074 50.863-29.463 36.837-49.549 8.7414-120.77-50.766-128.69l-9.0395-1.2035v-40.703-40.703l2.25-0.603c1.2375-0.3317 3.7962-0.6091 5.6861-0.6166 16.181-0.064 39.8-13.527 51.767-29.507 37.492-50.063 7.6121-122.91-52.954-129.09l-6.75-0.6896v-36.682-36.682l8.8309-1.1757c89.495-11.916 88.546-150.57-1.0809-157.85l-7.75-0.6295v-41.214-41.214l6.3299-0.6485c92.073-9.4334 90.764-158.63-1.3948-158.63h-4.938v-37.5-37.5h5.34c91.384 0 92.718-150.07 1.41-158.65l-6.75-0.63475v-32.71-32.71l7.25-0.61685c91.281-7.7664 88.716-158.68-2.6974-158.68h-4.5526v-32.79-32.79l10.298-1.6335c88.404-14.08 86.174-151.5-2.557-157.6l-7.7633-0.53355 0.2633-33.106 0.2633-33.106 7.5-0.62506c32.939-2.7451 62.331-31.558 67.525-66.194l0.7019-4.6808h47.271 47.271l0.6629 5.3058c10.95 87.639 135.92 86.352 151.01-1.5558l0.644-3.75h40.26 40.26l1.2244 7.25c14.002 82.909 130.79 84.897 149.36 2.5429l2.2085-9.7929h36.299 36.299v2.34c0 9.6788 8.5936 29.835 17.328 40.644 40.863 50.564 120.38 29.68 133.36-35.025l1.5963-7.9591h36.163 36.163l1.2244 7.25c14.148 83.778 133.05 84.479 149.82 0.8843l1.6315-8.1343h36.154 36.154l1.2218 7.1251c14.55 84.85 135.48 84.23 150.28-0.76985l1.1067-6.3553h36.397 36.397v2.3117c0 14.445 13.656 39.571 27.915 51.362 45.258 37.423 112.93 11.535 123.15-47.106l1.1437-6.5676h40.172 40.172l1.7914 8.75c13.295 64.937 94.403 84.776 134.14 32.81 8.2025-10.728 16.523-30.729 16.523-39.72 0-1.7487 1.6019-1.84 32.275-1.84h32.275l1.7191 8.3518c15.164 73.667 111.24 86.001 143.27 18.392 3.2523-6.8649 7.4638-20.917 7.4638-24.904 0-1.7563 1.837-1.84 40.386-1.84h40.386l0.7019 4.6808c13.122 87.501 137.93 87.501 151.05 0l0.7019-4.6808 32.136 0.000102 32.136 0.000102 0.1774 10.25c0.7219 41.71 34.737 77.65 73.573 77.735l6.75 0.0148v33.031c0 25.576-0.2821 33.109-1.25 33.373-0.6875 0.18811-4.175 0.8824-7.75 1.5429-80.196 14.816-79.773 140.34 0.5257 155.91l8.4677 1.6422v37.205 37.205l-3.75 0.64403c-53.208 9.1381-81.66 65.77-57.75 114.95 11.576 23.808 29.363 36.816 58.75 42.963l2.75 0.57524v32.936 32.936l-3.75 0.59531c-85.611 13.591-87.911 141.56-2.8351 157.7l6.5851 1.2492v37.169 37.169l-6.6022 1.1497c-83.37 14.518-82.649 147.04 0.8522 156.65l5.75 0.6616v41.768 41.768l-6.75 1.1726c-83.357 14.481-82.634 144.77 0.8708 156.79l5.3792 0.7739 0.2618 37.513 0.2618 37.513-6.8291 1.0753c-52.942 8.3364-80.993 76.343-50.392 122.17 13.163 19.714 37.111 35.198 54.439 35.198h2.781l-0.2609 41.694-0.261 41.694-7.5 1.3684c-51.829 9.4559-78.704 73.815-50.328 120.53 11.652 19.182 38.186 36.718 55.558 36.718h2.7701v37.455 37.455l-3.75 0.6161c-88.653 14.565-87.852 141.13 1 157.99l2.75 0.5217v41.436 41.436l-3.75 0.6161c-89.183 14.652-87.988 140.61 1.5 158.07l2.25 0.4391v41.462 41.462l-2.75 0.5217c-40.865 7.7524-67.25 38.754-67.25 79.016 0 40.3 26.347 71.257 67.25 79.016l2.75 0.5217v41.462 41.462l-2.75 0.5217c-88.901 16.865-89.702 143.42-1 157.99l3.75 0.6161v37.205 37.205l-8.4677 1.6422c-80.17 15.548-80.594 141.31-0.5257 155.92 3.575 0.6523 7.0625 1.34 7.75 1.5281 0.9678 0.2648 1.25 7.7883 1.25 33.328v32.986l-3.75 0.6161c-86.557 14.22-88.16 140.47-2 157.48l5.75 1.1355v36.785 36.785l-8.25 0.6847c-36.224 3.0064-62.939 27.718-71.193 65.853l-0.5952 2.75h-32.462-32.462l-0.5952-2.75c-8.6786-40.097-37.999-65.588-75.443-65.588-37.472 0-66.758 25.46-75.443 65.588l-0.5952 2.75h-40.512c-31.573 0-40.583-0.2758-40.832-1.25-0.1758-0.6875-1.0699-4.4-1.9868-8.25-18.498-77.675-130.95-77.294-147.63 0.5-0.6483 3.025-1.3948 6.2875-1.6588 7.25-0.6214 2.2652-65.151 2.7561-65.728 0.5-0.1758-0.6875-1.0699-4.4-1.9868-8.25-19.507-81.91-130.98-76.863-149.07 6.75l-0.5952 2.75h-40.512c-31.547 0-40.594-0.2766-40.88-1.25-0.202-0.6875-1.0832-4.4-1.9582-8.25-16.419-72.239-116.12-79.512-143.92-10.5-2.3703 5.8827-3.1087 8.3769-5.1071 17.25l-0.6193 2.75h-36.512c-28.347 0-36.594-0.2795-36.88-1.25-0.202-0.6875-1.094-4.4-1.9823-8.25-18.36-79.578-132.17-76.705-148.56 3.75l-1.1713 5.75h-36.46c-28.306 0-36.543-0.2796-36.828-1.25-0.202-0.6875-1.0915-4.3747-1.9768-8.1939-18.104-78.1-134.98-76.566-148.1 1.9439-1.3938 8.3435 2.7505 7.5559-38.214 7.2622l-36.578-0.2622-1.8149-7.6926c-19.11-80.998-132.04-79.136-148.85 2.4548l-1.1867 5.7623-36.576-0.2623-36.576-0.2622-1.8149-7.6926c-19.112-81.007-132.04-79.154-148.84 2.4426l-1.1841 5.75h-40.701-40.701l-1.2337-6.5037c-15.555-81.999-132.26-81.41-149.18 0.7537l-1.1841 5.75-47.179-0.01-47.179-0.01-0.2185-8.7446z" transform="matrix(0 1 1 0 6.5209e-7 6.2891e-7)" filter="url(#a)"/>
<path d="m3303.7 103.72c-39.592-0.9891-76.244-35.333-76.244-71.442v-4.84h-41.5-41.5v3.5422c0 92.315-150.89 95.886-158.68 3.7559l-0.6169-7.2981h-32.673-32.673l-1.1757 8.8309c-11.773 88.423-143.65 89.723-157.99 1.5575l-1.6896-10.385h-36.75-36.75v3.5422c0 92.358-150.88 95.93-158.68 3.7559l-0.6169-7.2981h-41.353-41.353v3.5422c0 32.139-28.277 63.994-63.5 71.534-45.882 9.8209-95.5-27.203-95.5-71.259v-3.8163h-41.362-41.362l-0.6838 6.75c-9.2343 91.163-150.57 91.652-158.27 0.5481l-0.6169-7.2981h-41.206-41.206l-0.6243 7.385c-7.6273 90.231-150.71 90.222-158.34-0.011l-0.6234-7.3744h-36.728-36.728l-0.625 3.125c-0.3437 1.7188-0.625 4.3367-0.625 5.8176 0 15.126-14.074 39.423-29.463 50.863-49.549 36.837-120.77 8.7414-128.69-50.766l-1.2035-9.0395h-40.703-40.703l-0.603 2.25c-0.3317 1.2375-0.6091 3.7963-0.6166 5.6861-0.064 16.181-13.527 39.8-29.507 51.767-50.063 37.492-122.91 7.6121-129.09-52.954l-0.6896-6.75h-36.682-36.682l-1.1757 8.8309c-11.916 89.495-150.57 88.546-157.85-1.0809l-0.6295-7.75h-41.214-41.214l-0.6485 6.3299c-9.4334 92.073-158.63 90.764-158.63-1.3948v-4.938h-37.5-37.5v5.34c0 91.384-150.07 92.718-158.65 1.41l-0.63475-6.75h-32.71-32.71l-0.61685 7.25c-7.7664 91.281-158.68 88.716-158.68-2.6974v-4.5526h-32.79-32.79l-1.6335 10.298c-14.08 88.404-151.5 86.174-157.6-2.557l-0.53355-7.7633-33.106 0.2633-33.106 0.2633-0.62505 7.5c-2.7451 32.939-31.558 62.331-66.194 67.525l-4.6808 0.7019v47.271 47.271l5.3058 0.6629c87.639 10.95 86.352 135.92-1.5558 151.01l-3.75 0.644v40.26 40.26l7.25 1.2244c82.909 14.002 84.897 130.79 2.5429 149.36l-9.7929 2.2085v36.299 36.299h2.34c9.6788 0 29.835 8.5936 40.644 17.328 50.564 40.863 29.68 120.38-35.025 133.36l-7.9591 1.5963v36.163 36.163l7.25 1.2244c83.778 14.148 84.479 133.05 0.8843 149.82l-8.1343 1.6315v36.154 36.154l7.1251 1.2218c84.85 14.55 84.23 135.48-0.76985 150.28l-6.3553 1.1067v36.397 36.397h2.3117c14.445 0 39.571 13.656 51.362 27.915 37.423 45.258 11.535 112.93-47.106 123.15l-6.5676 1.1437v40.172 40.172l8.75 1.7914c64.937 13.295 84.776 94.403 32.81 134.14-10.728 8.2025-30.729 16.523-39.72 16.523-1.7487 0-1.84 1.6019-1.84 32.275v32.275l8.3518 1.7191c73.667 15.164 86.001 111.24 18.392 143.27-6.8649 3.2523-20.917 7.4638-24.904 7.4638-1.7563 0-1.84 1.837-1.84 40.386v40.386l4.6808 0.7019c87.501 13.122 87.501 137.93 0 151.05l-4.6808 0.7019 0.000102 32.136 0.000102 32.136 10.25 0.1774c41.71 0.7219 77.65 34.737 77.735 73.573l0.0148 6.75h33.031c25.576 0 33.109-0.2821 33.373-1.25 0.18811-0.6875 0.8824-4.175 1.5429-7.75 14.816-80.196 140.34-79.773 155.91 0.5257l1.6422 8.4677h37.205 37.205l0.64403-3.75c9.1381-53.208 65.77-81.66 114.95-57.75 23.808 11.576 36.816 29.363 42.963 58.75l0.57524 2.75h32.936 32.936l0.59531-3.75c13.591-85.611 141.56-87.911 157.7-2.8351l1.2492 6.5851h37.169 37.169l1.1497-6.6022c14.518-83.37 147.04-82.649 156.65 0.8522l0.6616 5.75h41.768 41.768l1.1726-6.75c14.481-83.357 144.77-82.634 156.79 0.8708l0.7739 5.3792 37.513 0.2618 37.513 0.2618 1.0753-6.8291c8.3364-52.942 76.343-80.993 122.17-50.392 19.714 13.163 35.198 37.111 35.198 54.439v2.781l41.694-0.2609 41.694-0.261 1.3684-7.5c9.4559-51.829 73.815-78.704 120.53-50.328 19.182 11.652 36.718 38.186 36.718 55.558v2.7701h37.455 37.455l0.6161-3.75c14.565-88.653 141.13-87.852 157.99 1l0.5217 2.75h41.436 41.436l0.6161-3.75c14.652-89.183 140.61-87.988 158.07 1.5l0.4391 2.25h41.462 41.462l0.5217-2.75c7.7524-40.865 38.754-67.25 79.016-67.25 40.3 0 71.257 26.347 79.016 67.25l0.5217 2.75h41.462 41.462l0.5217-2.75c16.865-88.901 143.42-89.702 157.99-1l0.6161 3.75h37.205 37.205l1.6422-8.4677c15.548-80.17 141.31-80.594 155.92-0.5257 0.6523 3.575 1.34 7.0625 1.5281 7.75 0.2648 0.9678 7.7883 1.25 33.328 1.25h32.986l0.6161-3.75c14.22-86.557 140.47-88.16 157.48-2l1.1355 5.75h36.785 36.785l0.6847-8.25c3.0064-36.224 27.718-62.939 65.853-71.193l2.75-0.5952v-32.462-32.462l-2.75-0.5952c-40.097-8.6786-65.588-37.999-65.588-75.443 0-37.472 25.46-66.758 65.588-75.443l2.75-0.5952v-40.512c0-31.573-0.2758-40.583-1.25-40.832-0.6875-0.1758-4.4-1.0699-8.25-1.9868-77.675-18.498-77.294-130.95 0.5-147.63 3.025-0.6483 6.2875-1.3948 7.25-1.6588 2.2652-0.6214 2.7561-65.151 0.5-65.728-0.6875-0.1758-4.4-1.0699-8.25-1.9868-81.91-19.507-76.863-130.98 6.75-149.07l2.75-0.5952v-40.512c0-31.547-0.2766-40.594-1.25-40.88-0.6875-0.202-4.4-1.0832-8.25-1.9582-72.239-16.419-79.512-116.12-10.5-143.92 5.8827-2.3703 8.3769-3.1087 17.25-5.1071l2.75-0.6193v-36.512c0-28.347-0.2795-36.594-1.25-36.88-0.6875-0.202-4.4-1.094-8.25-1.9823-79.578-18.36-76.705-132.17 3.75-148.56l5.75-1.1713v-36.46c0-28.306-0.2796-36.543-1.25-36.828-0.6875-0.202-4.3747-1.0915-8.1939-1.9768-78.1-18.104-76.566-134.98 1.9439-148.1 8.3435-1.3938 7.5559 2.7505 7.2622-38.214l-0.2622-36.578-7.6926-1.8149c-80.998-19.11-79.136-132.04 2.4548-148.85l5.7623-1.1867-0.2623-36.576-0.2622-36.576-7.6926-1.8149c-81.007-19.112-79.154-132.04 2.4426-148.84l5.75-1.1841v-40.701-40.701l-6.5037-1.2337c-81.999-15.555-81.41-132.26 0.7537-149.18l5.75-1.1841-0.01-47.179-0.01-47.179-8.7446-0.2185z" fill="#f2f2f2"/>
<rect transform="matrix(0,1,1,0,0,0)" height="2994" width="1983.7" y="169.3" x="180.4" fill="#b9e6c1"/>
<path fill="#56c36a" d="m491.44 1829v-129.9h237.59 237.59v129.9 129.9h-237.59-237.59v-129.9zm1864.4 0v-129.9h237.59 237.59v129.9 129.9h-237.59-237.59v-129.9zm-1363-96.3c-2.3802-2.6301-2.3567-2.7947 0.83419-5.8215 1.806-1.7131 17.519-16.381 34.918-32.596s54.047-50.411 81.441-75.992 78.277-73.083 113.07-105.56c86.108-80.369 99.358-92.744 111.06-103.73 17.535-16.463 27.665-26.54 25.576-25.442-2.063 1.0841-133.04 89.236-265.86 178.93-40.72 27.499-95.322 64.326-121.34 81.84l-47.299 31.842-8.4246-12.776c-4.6335-7.0271-8.1849-12.978-7.8918-13.224 0.29318-0.2465 22.34-15.126 48.993-33.067 52.091-35.062 125.16-84.33 218.75-147.49 32.206-21.736 71.277-48.086 86.825-58.556s42.504-28.639 59.903-40.377 44.355-29.904 59.903-40.369 44.799-30.196 65.003-43.847 37.165-24.811 37.692-24.799c0.5264 0.013 4.5635 5.5324 8.9714 12.268l8.0144 12.248-3.9301 2.8753c-2.1615 1.5816-24.542 16.766-49.734 33.742l-45.804 30.867-72.057 67.401c-39.631 37.07-121.71 113.74-182.41 170.38-60.692 56.638-120.12 112.2-132.05 123.47-21.441 20.243-21.734 20.459-24.154 17.785zm1272.8-54.739c-33.687-31.516-96.988-90.68-140.67-131.48-43.681-40.795-94.261-88.067-112.4-105.05-18.14-16.981-41.76-39.091-52.489-49.134-10.729-10.042-24.358-22.832-30.288-28.421-7.4438-7.017-26.196-20.518-60.587-43.619-27.394-18.401-49.936-33.544-50.094-33.65-0.5829-0.392 15.789-24.304 16.892-24.672 0.6283-0.2095 40.158 25.948 87.844 58.128s113.66 76.671 146.6 98.869c32.946 22.198 77.772 52.425 99.613 67.171 73.669 49.738 132.32 89.234 188.07 126.66 30.511 20.479 55.265 37.841 55.009 38.581-0.2558 0.7403-4.0427 6.5749-8.4153 12.966l-7.9504 11.619-62.204-41.907c-82.153-55.347-298.17-200.97-338.16-227.96-35.882-24.221-34.999-23.646-34.999-22.788 0 0.3509 12.872 12.676 28.605 27.39 70.383 65.824 135.89 127.05 162.48 151.84 15.875 14.807 38.903 36.312 51.172 47.788 17.538 16.404 117.55 109.65 126.54 117.98 1.7289 1.602 1.6447 2.154-0.6731 4.4095-2.6221 2.5516-3.284 1.9847-63.898-54.724zm-1685.4-480.26v-498.74h34.999 34.999v498.74 498.74h-34.999-34.999v-498.74zm83.14 450.62-0.3535-48.124-5.048-0.4179-5.048-0.4177v-6.6494-6.6494h5.3956 5.3957l-0.34771-76.393-0.34757-76.393-5.048-0.4179-5.048-0.4177v-6.5681-6.5682l5.048-0.4177 5.048-0.4178v-18.846-18.846h-4.7114-4.7114l-0.40694-7.0671-0.4068-7.0672h5.4548 5.4549v-68.652-68.652h-5.3845-5.3845v-6.6493-6.6495l5.048-0.4177 5.048-0.4178v-18.173-18.173h-4.7114-4.7114l-0.40694-7.0672-0.4068-7.0672h5.4685 5.4686l-0.35026-60.912-0.35027-60.912h-4.7114-4.7114l-0.36225-29.951-0.36237-29.951h5.4212 5.4211l-0.34743-77.739-0.34744-77.739-5.048-0.41783-5.048-0.41771v-6.5682-6.5682l5.048-0.4177 5.048-0.41784 0.3508-58.22 0.3508-58.22h-49.148-49.148v-6.7306-6.7306h6.5866c4.0485 0 6.8203-0.64843 7.1929-1.6827 0.33357-0.92546 8.4009-35.454 17.928-76.729 9.5268-41.276 17.732-75.047 18.234-75.047 0.5017 0 1.3348 2.2716 1.8513 5.048 1.0878 5.8487 32.739 142.5 33.846 146.13 0.58785 1.9267 1.8975 2.3433 6.3482 2.0192l5.6076-0.40842 6.4672-21.538c3.5569-11.846 8.7983-29.413 11.648-39.038 2.8492-9.6248 14.084-47.485 24.966-84.133s19.876-67.225 19.986-67.947c0.11038-0.72279-1.1621-1.5221-2.828-1.7763-1.6658-0.25416-3.0288-1.2544-3.0288-2.2228 0-0.96841-0.90433-2.5112-2.0095-3.4285-5.629-4.6715-5.0423-17.453 1.1077-24.137 3.1039-3.3733 3.3081-5.1154 7.5886-64.715 3.9109-54.452 5.3254-69.729 5.4738-59.117 0.0256 1.7892 2.0292 29.681 4.4536 61.982 4.4076 58.721 4.4087 58.73 7.9777 62.971 4.7608 5.658 5.8325 11.917 3.0379 17.743-4.4919 9.3647-5.439 10.65-7.8479 10.65-1.721 0-2.2486 0.71024-1.75 2.3557 3.6663 12.1 48.473 162.92 54.09 182.06 9.7165 33.122 8.4684 30.819 16.666 30.755 5.8308-0.0458 6.8992-0.46643 7.4885-2.9522 2.2429-9.4625 27.028-116.38 30.551-131.79 2.3272-10.18 4.5767-18.505 4.999-18.499 0.42215 0.005 8.7012 34.382 18.398 76.393l17.63 76.382 6.9369 0.40694 6.9369 0.4068v6.6604 6.6602h-50.494-50.494l0.35094 58.22 0.3508 58.22 7.0672 0.40694 7.0672 0.4068v6.59 6.59l-7.0672 0.40693-7.0672 0.4068-0.34744 77.739-0.34757 77.739h7.4404 7.4403l-0.36224 29.951-0.36225 29.951h-6.7306-6.7306l-0.35026 60.912-0.35026 60.912h7.4878 7.4877l-0.40694 7.0672-0.4068 7.0672-6.7306 0.066-6.7306 0.066v18.107 18.107l7.0672 0.4068 7.0672 0.407v6.5899 6.5898l-7.0672 0.407-7.0672 0.4069-0.34892 68.316-0.34878 68.316h7.4864 7.4864l-0.40694 7.0671-0.4068 7.0672-6.7306 0.1507-6.7306 0.1508v18.695 18.695l7.0672 0.4069 7.0672 0.407v6.5898 6.5899l-7.0672 0.407-7.0672 0.4068-0.3477 76.393-0.34757 76.393h7.4147 7.4149v6.6604 6.6602l-7.0672 0.407-7.0672 0.4068-0.35349 48.124-0.35363 48.124h-68.618-68.619l-0.35349-48.124zm32.627-95.238v-14.134h-14.807-14.807v14.134 14.134h14.807 14.807v-14.134zm51.153 0v-14.134h-14.807-14.807v14.134 14.134h14.807 14.807v-14.134zm49.807 0v-14.134h-14.807-14.807v14.134 14.134h14.807 14.807v-14.134zm-100.96-43.076v-14.134h-14.807-14.807v14.134 14.134h14.807 14.807v-14.134zm51.153 0v-14.134h-14.807-14.807v14.134 14.134h14.807 14.807v-14.134zm49.807 0v-14.134h-14.807-14.807v14.134 14.134h14.807 14.807v-14.134zm-100.96-47.114v-14.134h-14.807-14.807v14.134 14.134h14.807 14.807v-14.134zm51.153 0v-14.134h-14.807-14.807v14.134 14.134h14.807 14.807v-14.134zm49.807 0v-14.134h-14.807-14.807v14.134 14.134h14.807 14.807v-14.134zm-100.96-129.23v-14.134h-14.807-14.807v14.134 14.134h14.807 14.807v-14.134zm51.153 0v-14.134h-14.807-14.807v14.134 14.134h14.807 14.807v-14.134zm49.807 0v-14.134h-14.807-14.807v14.134 14.134h14.807 14.807v-14.134zm-100.71-33.098c0.23423-7.4686 0.17352-13.829-0.13502-14.134-0.30839-0.3053-7.1232-0.5552-15.144-0.5552h-14.583v14.134 14.134h14.718 14.718l0.42591-13.579zm50.906-0.5551v-14.134h-14.807-14.807v14.134 14.134h14.807 14.807v-14.134zm49.807 0v-14.134h-14.807-14.807v14.134 14.134h14.807 14.807v-14.134zm-100.63-163.4c0.22911-7.6535 0.1641-14.165-0.14444-14.471-0.30839-0.3055-7.1232-0.5553-15.144-0.5553h-14.583v13.91c0 7.6506 0.2524 14.162 0.56093 14.471 0.3084 0.3085 6.9358 0.5609 14.727 0.5609h14.166l0.41649-13.916zm50.897-0.5552-0.001-14.471h-14.807-14.807v13.91c0 7.6506 0.25428 14.162 0.5651 14.471 0.31082 0.3085 6.9747 0.5609 14.809 0.5609h14.243l-0.001-14.471zm46.104 13.857 3.7018-0.059v-14.134-14.134h-14.807-14.807l-0.00053 14.471-0.00054 14.471 11.106-0.277c6.1083-0.1523 12.772-0.3037 14.808-0.3365zm-97.549-46.838-0.38203-14.471-11.442-0.3971c-18.318-0.6359-17.5-1.3482-17.5 15.23v14.109h14.853 14.853l-0.38203-14.471zm51.153 0-0.38204-14.471h-14.134-14.134l-0.38203 14.471-0.38217 14.471h14.899 14.898l-0.38203-14.471zm49.807 0-0.38203-14.471h-14.134-14.134l-0.38203 14.471-0.38217 14.471h14.899 14.898l-0.38204-14.471zm-100.67-143.7v-14.134h-14.807-14.807v14.134 14.134h14.807 14.807v-14.134zm51.153 0v-14.134h-14.807-14.807v14.134 14.134h14.807 14.807v-14.134zm49.807 0v-14.134h-14.807-14.807v14.134 14.134h14.807 14.807v-14.134zm-100.96-33.653v-14.134h-14.807-14.807v14.134 14.134h14.807 14.807v-14.134zm51.153 0v-14.134h-14.807-14.807v14.134 14.134h14.807 14.807v-14.134zm49.807 0v-14.134h-14.807-14.807v14.134 14.134h14.807 14.807v-14.134zm-26.1-182.75c-1.0296-40.094-2.2532-48.566-8.8458-61.249-4.637-8.9206-6.9778-11.819-13.515-16.736-18.9-14.216-42.322-1.0238-50.776 28.599-2.5154 8.8139-2.9354 14.563-3.5099 48.04l-0.6526 38.028h39.12 39.12l-0.94188-36.682zm47.638 454.65v-498.74h34.999 34.999v498.74 498.74h-34.999-34.999v-498.74zm1615.4 0v-498.74h34.999 34.999v498.74 498.74h-34.999-34.999v-498.74zm87.179 450.62-0.3535-48.124-7.0671-0.407-7.0672-0.4068v-6.5899-6.59l7.0672-0.4069 7.0671-0.4068v-76.056-76.056l-7.0671-0.407-7.0672-0.4068v-6.5899-6.59l7.0672-0.4069 7.0671-0.4068v-18.846-18.846l-7.0671 0.2411-7.0672 0.241v-7.2379-7.2378l7.0672-0.4068 7.0671-0.4069v-67.979-67.979l-7.0671-0.4068-7.0672-0.407v-6.5899-6.59l7.0672-0.4068 7.0671-0.4069v-18.173-18.173h-6.7306-6.7306l-0.4044-6.9945-0.4044-6.9945 7.135-0.4092 7.135-0.4092v-60.519-60.519l-7.0671 0.2063-7.0672 0.2062v-30.214-30.215h7.4146 7.4146l-0.3474-77.739-0.3475-77.739-7.0671-0.4068-7.0672-0.40693v-6.59-6.59l7.0672-0.4068 7.0671-0.40694v-57.883-57.883l-50.143-0.35296-50.143-0.35282v-6.7143-6.7142h6.5866c4.0599 0 6.811-0.64547 7.1715-1.6827 0.3217-0.92546 8.3914-35.454 17.932-76.729 9.5411-41.276 17.672-75.043 18.068-75.039 0.3966 0.004 8.24 32.564 17.43 72.354 9.19 39.791 17.253 74.346 17.918 76.789 1.1906 4.3752 1.3145 4.4363 8.1859 4.0384l6.977-0.40411 15.635-52.499c33.918-113.89 47.26-158.9 47.45-160.07 0.109-0.67484-1.3153-1.6745-3.1662-2.2215-1.8509-0.54702-2.8854-1.055-2.2989-1.1288 0.5863-0.0738-0.4737-2.7619-2.3558-5.9735-5.0182-8.5628-4.3987-14.66 2.23-21.949 2.3589-2.5938 3.0905-9.1024 7.2531-64.52 2.5463-33.899 4.7906-61.796 4.9871-61.992 0.1967-0.1966 2.3703 27.323 4.8303 61.154 3.8481 52.918 4.8065 61.888 6.8604 64.204 6.2933 7.0964 7.066 14.932 2.3875 24.208-2.259 4.4792-3.8216 6.0149-6.1483 6.0425-2.3378 0.0277-2.9406 0.62725-2.4059 2.3927 3.9021 12.881 48.518 163.21 54.236 182.74 4.1182 14.067 8.0396 26.636 8.7141 27.932 0.853 1.6384 2.844 2.3557 6.5379 2.3557 4.3963 0 5.4363-0.5219 6.0358-3.0288 5.6214-23.509 34.326-148.63 34.326-149.62 0-0.8484 0.4409-0.87455 1.1876-0.0705 0.6531 0.70335 6.7927 25.509 13.643 55.124 24.666 106.63 22.09 96.9 25.707 97.088 1.7661 0.0915 4.877 0.24297 6.913 0.33653 3.5221 0.1618 3.7018 0.49685 3.7018 6.9008v6.7306h-49.134-49.134v58.556 58.557h5.3845 5.3845v6.7306 6.7306h-5.3845-5.3845v78.075 78.075h5.4102 5.4104l-0.3624 29.951-0.3622 29.951h-4.7115-4.7114l-0.3503 60.912-0.3502 60.912h5.4686 5.4685l-0.4068 7.0037-0.4069 7.0036-4.7115 0.063-4.7114 0.063-0.3745 18.509-0.3745 18.509h5.4225 5.4224v6.7306 6.7307h-5.3845-5.3845v68.652 68.652h5.4549 5.4548l-0.4068 7.0671-0.4069 7.0672-5.048 0.4178-5.048 0.4177v18.765 18.764h5.3845 5.3845v6.7306 6.7307h-5.3845-5.3845v76.729 76.729h5.3845 5.3845v6.6493 6.6493l-5.048 0.4179-5.0479 0.4178-0.3535 48.124-0.3536 48.124h-68.618-68.618l-0.3537-48.124zm33.973-95.238v-14.134h-14.807-14.807v14.134 14.134h14.807 14.807v-14.134zm49.807 0v-14.134h-14.807-14.807v14.134 14.134h14.807 14.807v-14.134zm51.153 0v-14.134h-15.48-15.48v14.134 14.134h15.48 15.48v-14.134zm-100.96-43.076v-14.134h-14.807-14.807v14.134 14.134h14.807 14.807v-14.134zm49.807 0v-14.134h-14.807-14.807v14.134 14.134h14.807 14.807v-14.134zm50.863-0.3365 0.3837-13.798h-15.528-15.528v13.237c0 7.2804 0.4231 13.66 0.9403 14.177 0.5172 0.5171 7.332 0.7695 15.144 0.5609l14.204-0.3793 0.3836-13.798zm-100.67-46.778v-14.134h-14.807-14.807v14.134 14.134h14.807 14.807v-14.134zm49.807 0v-14.134h-14.807-14.807v14.134 14.134h14.807 14.807v-14.134zm51.153 0v-14.134h-15.48-15.48v14.134 14.134h15.48 15.48v-14.134zm-100.96-129.23v-14.134h-14.807-14.807v14.134 14.134h14.807 14.807v-14.134zm49.807 0v-14.134h-14.807-14.807v14.134 14.134h14.807 14.807v-14.134zm51.153 0v-14.134h-15.48-15.48v14.134 14.134h15.48 15.48v-14.134zm-100.96-33.653v-14.134h-14.807-14.807v14.134 14.134h14.807 14.807v-14.134zm49.807 0v-14.134h-14.807-14.807v14.134 14.134h14.807 14.807v-14.134zm50.863 0.3365-0.3836-13.798h-14.807-14.807l-0.3836 13.798-0.3837 13.798h15.575 15.575l-0.3837-13.798zm-100.67-164.23v-14.471h-14.807-14.807v13.91c0 7.6506 0.2524 14.162 0.5609 14.471 0.3084 0.3085 6.9717 0.5609 14.807 0.5609h14.246v-14.471zm100.29 0.097v-13.895h-14.807-14.807l-0.3901 12.687c-0.2147 6.9779-0.1405 13.338 0.1648 14.134 0.3567 0.9303 5.7845 1.3617 15.198 1.208l14.643-0.2391v-13.895zm-50.48-0.434v-14.134h-14.807-14.807v14.134 14.134h14.807 14.807v-14.134zm-50.098-32.644-0.382-14.471h-14.134-14.134l-0.3821 14.471-0.3821 14.471h14.898 14.898l-0.3822-14.471zm50.098 0.4806c0-11.516-0.3767-14.135-2.1294-14.807-1.1711-0.4493-7.8344-0.8171-14.807-0.8171h-12.678v14.807 14.807h14.807 14.807v-13.99zm50.868-0.032c0.2841-9.7733-0.077-13.645-1.3461-14.45-2.0088-1.2745-24.04-1.5373-27.2-0.3243-1.7398 0.6676-2.1294 3.2127-2.1294 13.91 0 7.2011 0.4231 13.516 0.9403 14.033 0.5172 0.5171 7.332 0.7695 15.144 0.5609l14.204-0.3793 0.3879-13.35zm-100.67-144.15v-14.134h-14.807-14.807v14.134 14.134h14.807 14.807v-14.134zm49.807 0v-14.134h-14.807-14.807v14.134 14.134h14.807 14.807v-14.134zm50.863-0.33653 0.3837-13.798h-15.528-15.528v13.237c0 7.2804 0.4231 13.66 0.9403 14.177 0.5172 0.51704 7.332 0.76944 15.144 0.56079l14.204-0.37934 0.3836-13.798zm-100.67-33.317v-14.134h-14.807-14.807v14.134 14.134h14.807 14.807v-14.134zm49.807 0v-14.134h-14.807-14.807v14.134 14.134h14.807 14.807v-14.134zm51.153 0v-14.134h-15.48-15.48v14.134 14.134h15.48 15.48v-14.134zm-28.008-183.41c-0.4415-40.027-1.3705-47.146-7.811-59.856-4.0092-7.9116-11.217-16.111-17.669-20.098-5.9815-3.6968-17.818-4.0007-24.322-0.62456-6.499 3.3737-14.496 12.158-18.479 20.3-6.6085 13.507-7.3944 19.16-8.2874 59.605l-0.8396 38.028 38.91 0.001 38.91 0.001-0.4121-37.356zm44.161 455.33v-498.74h34.999 34.999v498.74 498.74h-34.999-34.999v-498.74zm-2106.7 395.09v-6.7307h6.0576 6.0576v6.7307 6.7306h-6.0576-6.0576v-6.7306zm325.76 0v-6.7307h5.3845 5.3845v6.7307 6.7306h-5.3845-5.3845v-6.7306zm1529.2 0v-6.7307h5.3845 5.3845v6.7307 6.7306h-5.3845-5.3845v-6.7306zm324.42 0v-6.7307h6.0576 6.0575v6.7307 6.7306h-6.0575-6.0576v-6.7306zm-2179.4-166.92v-6.7307h6.0576 6.0576v6.7307 6.7306h-6.0576-6.0576v-6.7306zm325.76 0v-6.7307h5.3845 5.3845v6.7307 6.7306h-5.3845-5.3845v-6.7306zm1529.2 0v-6.7307h5.3845 5.3845v6.7307 6.7306h-5.3845-5.3845v-6.7306zm324.42 0v-6.7307h6.0576 6.0575v6.7307 6.7306h-6.0575-6.0576v-6.7306zm-2179-45.6c-0.37112-0.3711-0.67468-3.6025-0.67468-7.1811v-6.5062h6.1278 6.128l-0.40693 7.0672-0.4068 7.0671-5.0464 0.1145c-2.7754 0.062-5.3499-0.1898-5.721-0.561zm326.05 0.2865c-0.52862-0.5287-0.96113-3.889-0.96113-7.4676v-6.5062h5.4548 5.4549l-0.40693 7.0672c-0.39038 6.7814-0.57211 7.0833-4.4936 7.4675-2.2476 0.2202-4.5192-0.032-5.048-0.5609zm1528.2-6.7301v-7.2437h5.4549 5.4548l-0.4068 7.0528-0.4069 7.0526-5.048 0.1909-5.048 0.191v-7.2436zm324.42-0.1185v-7.1249h6.128 6.1278l-0.4068 7.0151-0.4069 7.015-5.7211 0.1104-5.721 0.1104v-7.1249zm-2179.4-151.16v-6.7307h6.0576 6.0576v6.7307 6.7306h-6.0576-6.0576v-6.7306zm325.76 0v-6.7307h5.3845 5.3845v6.7307 6.7306h-5.3845-5.3845v-6.7306zm1529.2 0v-6.7307h5.3845 5.3845v6.7307 6.7306h-5.3845-5.3845v-6.7306zm324.42 0v-6.7307h6.0576 6.0575v6.7307 6.7306h-6.0575-6.0576v-6.7306zm-2175.6-44.1c-3.4606-0.5364-3.7018-1.0065-3.7018-7.2149v-6.6413h6.1278 6.128l-0.40693 7.0545c-0.4317 7.4872-0.94754 7.9178-8.147 6.8017zm322.62-0.2828c-0.30853-0.3084-0.56093-3.4886-0.56093-7.0672v-6.5062h5.4548 5.4549l-0.40693 7.0672c-0.40478 7.0307-0.42995 7.0671-4.8938 7.0671-2.468 0-4.7396-0.2524-5.048-0.5609zm1530.1 0.1516c-0.8053-0.2684-1.4641-3.4664-1.4641-7.1065v-6.6185h5.4549 5.4548l-0.4068 6.9553c-0.3796 6.4882-0.6476 6.9655-3.9909 7.1065-1.9712 0.083-4.2428-0.069-5.0479-0.3368zm323.75 0.081c-0.4362-0.4362-0.7929-3.7207-0.7929-7.2991v-6.5064h6.0576 6.0575v6.7306c0 4.4377-0.5733 6.7623-1.6826 6.8234-0.9255 0.051-3.2947 0.3069-5.2647 0.5685-1.9702 0.2617-3.9389 0.1184-4.3749-0.317zm-2180.2-166.59v-28.942h6.0576 6.0576v28.942 28.942h-6.0576-6.0576v-28.942zm325.76 0v-28.942h5.3845 5.3845v28.942 28.942h-5.3845-5.3845v-28.942zm1529.2 0v-28.942h5.3845 5.3845v28.942 28.942h-5.3845-5.3845v-28.942zm324.42 0v-28.942h6.0576 6.0575v28.942 28.942h-6.0575-6.0576v-28.942zm-1853.6-63.941v-21.538h156.15c85.883 0 156.15-0.41501 156.15-0.92237 0-1.272-12.627-20.58-13.461-20.584-0.3702-0.001-3.3989 4.2244-6.7306 9.3911-3.3317 5.1668-6.9662 9.447-8.0768 9.5115-1.1105 0.0646-3.0792 0.32038-4.3749 0.56833-1.2956 0.2481-2.3557-0.001-2.3557-0.55554 0-0.55353 3.6345-6.1012 8.0768-12.328 4.4422-6.2268 8.0767-11.949 8.0767-12.715 0-0.76662-3.3316-6.0137-7.4037-11.66-4.072-5.6465-7.4037-10.625-7.4037-11.062 0-0.43789 1.9687-0.79071 4.3749-0.78425 3.8661 0.0135 4.9792 0.94969 9.5711 8.0768 2.8579 4.4358 5.6184 8.0649 6.1345 8.0649 1.0156 0 13.573-16.678 13.573-18.027 0-0.45055-70.268-0.81925-156.15-0.81925h-156.15v-6.0576-6.0576h156.15 156.15v-6.0576-6.0576h43.076 43.076v6.0576 6.0576h154.48 154.48l25.55-25.576c14.052-14.067 26.106-25.576 26.786-25.576s12.922 11.512 27.204 25.582l25.968 25.582 156.56-0.34219 156.56-0.34218 0.414-5.721 0.4139-5.721h42.248 42.248l0.4139 5.721 0.4139 5.721 163.89 0.34191 163.89 0.34192v6.0522 6.0522h-164.23c-108.59 0-164.23 0.45607-164.23 1.3461 0 0.74036 1.6658 1.3736 3.7018 1.407 3.0373 0.0498 4.6004 1.5 8.707 8.0768 2.7529 4.4088 5.5109 8.0159 6.1292 8.0159 0.6182 0 3.6871-3.6345 6.8198-8.0768 5.1073-7.2422 6.1815-8.0768 10.396-8.0768h4.7007l-8.7136 11.552-8.7136 11.552 8.6779 11.994c9.3953 12.985 10.387 15.48 5.6493 14.211-1.6658-0.44638-3.6346-0.82639-4.3749-0.84443-0.7404-0.0175-4.0721-4.2601-7.4037-9.4269-3.3317-5.1667-6.3605-9.388-6.7307-9.3805-0.3701 0.0135-3.2661 3.9604-6.4352 8.7844-3.1692 4.824-7.4095 9.506-9.4229 10.404-2.8999 1.2942 30.543 1.7047 160.9 1.9756l164.56 0.34178v21.533 21.533h-769.98-769.98v-21.538zm704.64-22.974c-0.488-0.78963-1.2282-1.0948-1.645-0.67804-0.4167 0.41676-3.4638-3.329-6.7714-8.3236-3.3076-4.9948-6.4806-9.5971-7.0513-10.227-0.5706-0.63026-4.083 3.3673-7.8053 8.8836-5.58 8.269-7.364 9.9975-10.164 9.848-1.8681-0.0996-3.6799-0.46482-4.0262-0.81104s3.2327-6.038 7.953-12.648l8.5826-12.019-7.0965-10.188c-10.061-14.444-9.7676-13.553-4.4647-13.553 4.2218 0 5.1408 0.77954 10.357 8.7858l5.7241 8.7858 6.1162-8.7858c3.7336-5.3631 7.0714-8.7858 8.5683-8.7858 1.3486 0 2.4521-0.60576 2.4521-1.3461 0-0.88952-52.05-1.3461-153.46-1.3461s-153.46 0.45661-153.46 1.3461c0 0.74036 1.4432 1.3461 3.2071 1.3461 2.4673 0 4.5308 2.0314 8.9444 8.8057l5.737 8.8056 6.1997-8.7399c5.4558-7.6914 6.734-8.7479 10.654-8.8057 5.1663-0.0767 5.3679-0.6137-4.9193 13.119l-7.3558 9.8197 2.6418 3.6415c14.084 19.413 15.365 21.599 12.961 22.114-4.7309 1.0122-6.9767-0.6942-13.168-10.005-3.4563-5.1978-6.7337-8.9264-7.2832-8.2857-0.5494 0.64062-3.8688 5.2654-7.3763 10.277-3.5074 5.0118-6.9022 8.7879-7.5438 8.3914-0.6416-0.39657-1.5471-0.105-2.0121 0.64708-0.5708 0.92371 49.059 1.3681 152.77 1.3681 108.46 0 153.36-0.42201 152.73-1.4356zm-256.38-0.90123c0-0.29749 3.5132-5.4966 7.8072-11.554 4.294-6.057 8.2102-11.678 8.7027-12.491 0.4926-0.81293-1.7008-5.0532-4.874-9.4229-3.1734-4.3698-6.8564-9.6108-8.1846-11.647l-2.4148-3.7018h4.7081c4.3155 0 5.1865 0.73418 10.445 8.8052l5.7368 8.805 6.2-8.7762c5.4843-7.763 6.7142-8.7794 10.654-8.805 5.16-0.0337 5.3549-0.55972-4.828 13.035-4.5569 6.0837-6.8869 10.348-6.2515 11.442 0.557 0.95898 4.5472 6.6841 8.8669 12.722 4.3199 6.0382 7.8542 11.297 7.8542 11.687 0 0.38957-1.6658 0.48851-3.7018 0.21982s-4.1513-0.53024-4.7008-0.58126c-0.5494-0.0512-3.8184-4.333-7.2647-9.5156-3.446-5.1826-6.3809-9.4229-6.5215-9.4229-0.1408 0-3.1796 4.2403-6.7529 9.4229s-7.1553 9.4734-7.9599 9.535c-0.8047 0.0619-2.8259 0.26343-4.4917 0.44812-1.6659 0.18483-3.0288 0.0929-3.0288-0.20488zm55.191-0.0336c0-0.31634 3.5342-5.5155 7.8541-11.554 4.3197-6.0382 8.236-11.644 8.7027-12.457 0.4668-0.81292-1.7477-5.0532-4.9211-9.4229-3.1732-4.3697-6.8563-9.6107-8.1844-11.647l-2.415-3.7018h4.7082c4.3156 0 5.1865 0.73418 10.445 8.805l5.7368 8.8052 6.2-8.7762c5.4842-7.7631 6.7142-8.7796 10.654-8.8052 5.16-0.0337 5.3549-0.55972-4.828 13.035-4.6719 6.2374-6.8863 10.321-6.2047 11.442 0.5829 0.95911 4.5731 6.6995 8.8671 12.756 4.294 6.057 7.8072 11.321 7.8072 11.698 0 0.56295-3.9027 0.40033-8.3099-0.34609-0.4985-0.0848-3.7253-4.3939-7.1705-9.5765-3.4454-5.1826-6.516-9.4229-6.8234-9.4229-0.3073 0-3.3785 4.2403-6.8247 9.4229-3.4463 5.1826-6.9341 9.4734-7.751 9.535-0.8169 0.0619-2.848 0.26343-4.5139 0.44812-1.6658 0.18482-3.0287 0.0767-3.0287-0.23921zm59.654-0.19586c-2.757-0.74845-2.3935-1.5431 5.8294-12.738l8.7697-11.94-6.5025-9.3048c-3.5762-5.1177-7.3334-10.497-8.3492-11.954-1.7304-2.4819-1.5494-2.6489 2.8706-2.6489 4.3242 0 5.193 0.72974 10.418 8.7498 3.1354 4.8124 5.8332 8.7498 5.9952 8.7498s2.9681-3.923 6.236-8.7178c5.2801-7.7474 6.4373-8.7213 10.396-8.7498 5.1556-0.0377 5.3701-0.62676-4.8191 13.243l-7.28 9.9094 4.4207 6.2441c2.4312 3.4342 6.4229 8.9057 8.8703 12.159 2.4474 3.253 4.4497 6.3116 4.4497 6.7969 0 0.48528-2.0715 0.64049-4.6034 0.34488-3.9797-0.46468-5.4407-1.7964-10.78-9.8256-3.397-5.1086-6.4031-9.2883-6.6804-9.2883-0.2775 0-3.0864 3.9631-6.2423 8.807-6.2545 9.5999-8.5283 11.378-12.999 10.164zm88.17 0.16288c-1.2478-0.2485-5.1406-4.6553-8.6509-9.7929-3.5104-5.1376-6.532-9.341-6.7146-9.341s-3.151 4.2403-6.5963 9.4229c-5.7645 8.6709-6.6394 9.4229-10.964 9.4229h-4.6997l3.0752-4.3749c1.6914-2.4062 5.6672-7.9206 8.8349-12.254 3.1678-4.3336 5.3398-8.5739 4.8267-9.4229-0.5132-0.84887-3.7219-5.4809-7.1306-10.293-9.0609-12.792-8.8595-12.115-3.6029-12.115 4.2228 0 5.1405 0.77927 10.37 8.8057l5.737 8.8056 6.1996-8.7399c5.4559-7.6914 6.7342-8.7479 10.654-8.8057 5.162-0.0754 5.3557-0.59754-4.828 12.998-4.6879 6.2586-6.8861 10.317-6.198 11.442 0.5865 0.95898 4.5767 6.6589 8.8669 12.666 4.2904 6.0075 7.8007 11.178 7.8007 11.49 0 0.67441-3.793 0.72139-6.9799 0.0862zm475.43-2.5027c0-4.3106-5.9888-16.636-8.0767-16.622-0.3702 0-3.5336 4.1704-7.0299 9.2623-5.0646 7.3758-7.1854 9.3794-10.432 9.8561-2.2416 0.32899-4.0757 0.0404-4.0757-0.64184 0-0.68208 3.6346-6.2747 8.0768-12.428 4.4422-6.1534 8.0767-11.642 8.0767-12.198 0-0.55528-1.3901-2.8841-3.0892-5.175-1.6991-2.291-5.3852-7.3457-8.1913-11.233l-5.1022-7.0672h4.7977c4.4049 0 5.2778 0.7156 10.662 8.7412l5.8639 8.7411 4.2604-5.9324c2.5814-3.5947 4.2603-7.5697 4.2603-10.087v-4.1548h-156.15-156.15v26.923 26.923h156.15 156.15v-4.9068zm-309.61 2.4396c0-0.31527 3.9374-5.958 8.7498-12.539 4.8124-6.5814 8.7499-12.264 8.7499-12.627 0-0.36359-3.2219-5.0469-7.1595-10.407-10.078-13.719-9.8685-13.112-4.5202-13.112 4.2197 0 5.141 0.78008 10.334 8.7498 3.1354 4.8124 5.8332 8.7498 5.9953 8.7498 0.1619 0 2.9681-3.923 6.2359-8.7178 5.3141-7.7972 6.4198-8.7212 10.471-8.7498l4.5297-0.0323-2.3918 3.7018c-1.3156 2.036-5.0519 7.1806-8.3029 11.433l-5.911 7.7305 4.3571 6.4038c2.3965 3.522 6.366 9.0652 8.8212 12.318 5.4233 7.1859 5.5233 8.1758 0.762 7.5476-2.036-0.26869-4.0673-0.53024-4.5139-0.58126-0.4467-0.0512-3.6317-4.333-7.078-9.5156-3.4462-5.1826-6.475-9.4229-6.7306-9.4229s-3.2844 4.2403-6.7306 9.4229-6.7153 9.501-7.2647 9.5965c-2.9554 0.51355-8.4025 0.54694-8.4025 0.0512zm58.769-0.65705c0.5095-0.87296 4.4965-6.6484 8.8599-12.834 4.3636-6.1858 7.6133-11.941 7.2216-12.788-0.3917-0.84765-4.084-6.2358-8.2052-11.974l-7.4931-10.432h4.7219c4.3109 0 5.2314 0.75975 10.578 8.7296l5.8562 8.7296 6.2799-8.7296c5.3326-7.4127 6.8903-8.7296 10.326-8.7296 2.2252 0 4.0458 0.33869 4.0458 0.75262 0 0.4138-3.6601 5.5604-8.1334 11.437l-8.1335 10.684 8.7396 12.357c4.8069 6.7962 8.4937 12.755 8.1928 13.242-0.3008 0.48676-2.3432 0.62138-4.5384 0.29925-3.1807-0.46684-5.2579-2.4905-10.226-9.9626l-6.2351-9.3767-2.3239 3.1198c-1.278 1.7159-4.0727 5.7208-6.2102 8.8998-4.5558 6.7755-4.8135 6.9694-10.158 7.6459-2.8693 0.36305-3.8139 0.0444-3.1641-1.0696zm56.998 0.27919c0-0.6207 3.6345-6.2098 8.0768-12.42 4.4422-6.2104 8.0767-11.747 8.0767-12.304 0-0.91995-4.5469-7.5246-13.224-19.209l-3.249-4.3749h4.8429c4.4591 0 5.3061 0.6907 10.692 8.7189l5.8489 8.7189 6.4019-8.7189c5.6878-7.7463 6.9095-8.7189 10.953-8.7189h4.5513l-8.6722 11.632-8.6725 11.632 4.4941 6.2042c2.4717 3.4123 6.4408 8.9284 8.8199 12.258l4.3258 6.0539-3.1235 0.78749c-4.647 1.1714-5.2883 0.65596-11.874-9.5427-3.3317-5.1598-6.3605-9.3868-6.7307-9.3934-0.3702-0.0135-2.3208 2.5614-4.3349 5.7066-6.3238 9.8759-9.6739 13.272-13.507 13.693-2.0327 0.22319-3.6957-0.1023-3.6957-0.723zm49.807 0.40882c0-0.30221 4.0244-6.0325 8.9431-12.734 6.2311-8.4895 8.5785-12.725 7.7402-13.967-0.6616-0.98052-4.4151-6.3351-8.3412-11.899l-7.1386-10.116h4.8122c4.3824 0 5.26 0.69326 9.8306 7.7649 2.7602 4.2706 5.4105 8.0566 5.8894 8.4133 0.4791 0.35659 3.658-3.1376 7.0645-7.7649 5.2095-7.0766 6.8355-8.4133 10.235-8.4133 2.2227 0 4.0412 0.33869 4.0412 0.75262 0 0.4138-3.6629 5.5644-8.14 11.446l-8.14 10.693 8.8446 12.686c4.8645 6.9771 8.2524 13.052 7.5288 13.499-3.468 2.1434-8.2074-1.2654-14.118-10.154-3.4038-5.119-6.398-9.3073-6.6537-9.3073s-3.2371 4.1691-6.6254 9.2646c-5.4149 8.1435-6.7421 9.3324-10.966 9.8256-2.6432 0.30867-4.8059 0.31378-4.8059 0.0135zm58.82-0.78641c0.4703-0.81885 4.3896-6.4291 8.7094-12.467 4.3198-6.0382 7.8542-11.409 7.8542-11.935 0-0.87095-4.6685-7.6325-13.224-19.153l-3.249-4.3749h4.8428c4.4593 0 5.3063 0.6907 10.692 8.7189l5.8489 8.7189 6.4019-8.7189c5.3423-7.2758 7.0525-8.7189 10.333-8.7189 2.162 0 3.931 0.32415 3.931 0.72018s-3.6138 5.6436-8.0306 11.661l-8.0307 10.941 4.4727 6.1751c12.051 16.638 12.951 18.121 11.529 19-3.6388 2.2488-7.6127-0.57587-13.424-9.542-3.3194-5.1215-6.3383-9.3152-6.7084-9.3194-0.3702 0-3.3225 3.9373-6.5607 8.759-3.2382 4.8216-6.5699 9.1997-7.4036 9.7291-2.5475 1.6174-8.9352 1.4622-7.9838-0.19384zm-635.74-15.467 6.3893-9.2667-6.2968-8.5694c-3.4633-4.7131-6.5424-8.8217-6.8428-9.1302-0.3001-0.3084-0.5458 7.7179-0.5458 17.836s0.2039 18.397 0.4534 18.397c0.2493 0 3.3285-4.17 6.8427-9.2669zm813.1 0.68262c3.3691-4.7213 6.1255-9.0168 6.1255-9.5454 0-1.658-11.1-16.87-12.31-16.87-0.6331 0-1.1511 7.8748-1.1511 17.5 0 9.6248 0.2723 17.5 0.6051 17.5 0.3327 0 3.3615-3.8628 6.7306-8.5842zm-513.53-9.925-0.05-15.817-4.6106 5.3845c-8.3846 9.792-8.4284 10.2-2.0084 18.703 3.1336 4.1504 5.9275 7.5461 6.2088 7.5461 0.2812 0 0.4885-7.1176 0.4608-15.817zm-393.02-0.5013c0-11.956-1.1092-12.564-6.0803-3.333l-2.4875 4.619 3.6793 4.824c2.0237 2.6531 3.9515 4.8238 4.2839 4.8238 0.3325 0 0.6046-4.9202 0.6046-10.934zm814.41 0.16477c0-1.4807-0.541-2.6922-1.2021-2.6922-1.5132 0-2.9244 3.5014-1.8461 4.5798 1.6204 1.6205 3.0482 0.73633 3.0482-1.8875zm-1086.6 25.52c-1.2582-0.73634-4.818-5.2515-7.9108-10.034-3.0927-4.7822-6.0748-8.4158-6.6268-8.0746-0.55204 0.34111-3.6192 4.5697-6.8158 9.3968-5.2434 7.9179-6.256 8.7766-10.347 8.7766-5.195 0-5.4814 0.82141 4.6467-13.326 3.9218-5.4781 7.1307-10.646 7.1307-11.485 0-0.83877-3.3317-6.1448-7.4037-11.791-4.072-5.6465-7.4037-10.625-7.4037-11.062 0-0.4379 1.9687-0.79072 4.3749-0.78425 3.8661 0.0135 4.9792 0.94969 9.5711 8.0768 2.8578 4.4358 5.6965 8.0649 6.3081 8.0649 0.61155 0 3.6615-3.6345 6.7775-8.0768 5.0746-7.2342 6.1533-8.0768 10.342-8.0768h4.6762l-3.7854 5.048c-2.0819 2.7764-5.7884 7.7095-8.2366 10.963-2.4481 3.253-4.4511 6.5116-4.4511 7.2412 0 0.72973 3.9291 6.7001 8.7314 13.268 4.8023 6.5676 8.1835 11.941 7.5138 11.941s-2.0243 0.28659-3.0103 0.63686c-0.98604 0.35026-2.8223 0.035-4.0805-0.70187zm15.076-0.0956c0-0.61626 3.6345-6.2017 8.0768-12.412 4.4422-6.2104 8.0768-11.759 8.0768-12.33 0-0.57129-3.651-6.1429-8.1134-12.381l-8.1132-11.343 4.976 0.41999c4.3695 0.36884 5.6189 1.3632 10.252 8.1602 2.9017 4.2571 5.7402 7.7402 6.3075 7.7402 0.56753 0 3.5812-3.6345 6.6974-8.0768 5.0784-7.2397 6.1511-8.0768 10.351-8.0768h4.686l-8.1373 10.69c-4.4755 5.8792-8.1372 11.413-8.1372 12.298 0 0.88468 3.6345 6.6897 8.0768 12.9 4.4422 6.2104 8.0768 11.781 8.0768 12.38 0 0.59889-1.363 0.93771-3.0288 0.75289-1.6658-0.18469-3.6345-0.3928-4.3749-0.46239-0.74037-0.07-4.072-4.3539-7.4037-9.5208-3.3317-5.1667-6.3604-9.3927-6.7306-9.3911-0.37019 0.001-3.5268 4.3869-7.0147 9.745-5.4864 8.4282-6.8934 9.7614-10.432 9.8854-2.25 0.0794-4.0909-0.3609-4.0909-0.97729zm53.845 0.20178c0-0.74615 3.6345-6.4706 8.0768-12.721 4.4422-6.2506 8.0767-11.788 8.0767-12.306 0-0.90352-6.191-9.887-13.162-19.099l-3.3107-4.3749h4.8429c4.4649 0 5.3046 0.68827 10.76 8.8206l5.9173 8.8205 6.2942-8.8205c5.6833-7.9645 6.7484-8.8206 10.973-8.8206h4.679l-8.7672 11.623-8.7672 11.623 4.5006 6.213c12.91 17.823 13.099 18.145 11.22 19.196-3.6603 2.0484-7.1427-0.52917-13.07-9.6738-3.329-5.136-6.3555-9.3394-6.7257-9.3408-0.3702-0.001-2.985 3.5858-5.8107 7.9719-2.8256 4.386-5.8544 8.5374-6.7306 9.2254-2.5322 1.9885-8.9967 3.1834-8.9967 1.6631zm57.119-0.18845c-0.3552-0.57453 3.0032-6.146 7.463-12.381 4.4597-6.2348 8.1086-11.804 8.1086-12.375 0-0.57129-3.6242-6.1054-8.0536-12.298l-8.0536-11.259h5.0281c4.7259 0 5.3644 0.53024 10.626 8.823l5.5976 8.823 6.2959-8.823c5.6738-7.9512 6.756-8.823 10.95-8.823h4.6539l-8.1374 10.69c-4.4754 5.8792-8.1372 11.373-8.1372 12.208 0 0.83513 3.6346 6.6324 8.0768 12.883 4.4422 6.2505 8.0768 11.96 8.0768 12.687 0 0.72731-1.363 1.0683-3.0288 0.75787-1.6659-0.31055-3.6346-0.61612-4.3749-0.67912-0.7404-0.0633-4.0721-4.3417-7.4037-9.5085-3.3317-5.1667-6.3605-9.3941-6.7307-9.3941s-3.3857 4.1854-6.7013 9.3008c-4.7009 7.2529-6.8628 9.4233-9.8187 9.8572-2.0848 0.30597-4.081 0.0862-4.4361-0.48851zm54.316-0.48569c0.465-0.76231 4.3557-6.3012 8.6459-12.309 4.2904-6.0075 7.8007-11.39 7.8007-11.962 0-0.57129-3.6242-6.1054-8.0536-12.298l-8.0536-11.259h5.0281c4.7259 0 5.3644 0.53024 10.626 8.823l5.5976 8.823 6.2959-8.823c5.6439-7.9092 6.7713-8.823 10.884-8.823h4.5878l-8.0713 10.886c-4.4391 5.987-8.0711 11.521-8.0711 12.298 0 0.77672 3.6346 6.4936 8.0768 12.704s8.0767 11.8 8.0767 12.422c0 0.97998-1.9603 1.0617-7.4037 0.3088-0.7403-0.1023-4.072-4.4134-7.4037-9.5802-3.3316-5.1667-6.3604-9.3927-6.7306-9.3911-0.3702 0.001-3.5254 4.3869-7.0114 9.745-5.8343 8.9675-6.709 9.7453-11.002 9.7819-2.8565 0.0242-4.3358-0.49712-3.8181-1.3461zm1044.6 0.0565c0.4841-0.7934 4.3905-6.3578 8.6809-12.365 4.2903-6.0075 7.8006-11.367 7.8006-11.91 0-0.54316-3.3317-5.7151-7.4037-11.493-4.0721-5.7782-7.4037-10.868-7.4037-11.311 0-0.44261 1.9702-0.80458 4.3781-0.80458 3.9254 0 4.957 0.91227 9.9757 8.823l5.5975 8.823 6.296-8.823c5.6439-7.9092 6.7713-8.823 10.884-8.823h4.5877l-8.0712 10.886c-4.4392 5.987-8.0711 11.521-8.0711 12.298 0 0.77685 3.5103 6.3276 7.8005 12.335 10.347 14.488 10.05 13.882 6.6079 13.498-1.6315-0.18226-3.875-0.38835-4.9855-0.45795-1.1106-0.07-4.7451-4.3539-8.0768-9.5206-3.3317-5.1668-6.3605-9.3942-6.7306-9.3942-0.3702 0-3.399 4.2274-6.7307 9.3942-3.3316 5.1667-6.3604 9.4526-6.7306 9.5241-4.5709 0.88333-9.1328 0.5153-8.4047-0.67791zm53.77 0.1225c0.5257-0.86044 4.4659-6.4797 8.7563-12.487 4.2902-6.0075 7.8005-11.39 7.8005-11.962 0-0.57129-3.6242-6.1055-8.0536-12.298l-8.0536-11.259h4.6599c4.2416 0 5.1933 0.79503 10.602 8.8568l5.9416 8.8568 6.32-8.8568c5.6869-7.9693 6.784-8.8568 10.949-8.8568h4.629l-8.7137 11.552-8.7136 11.552 8.7768 12.131c4.8272 6.6719 8.4065 12.501 7.954 12.953-0.4525 0.45243-2.2342 1.0118-3.9594 1.2427-2.5976 0.34798-4.266-1.3157-9.7085-9.6807-3.6145-5.5555-6.8747-10.102-7.2449-10.104-0.3702-0.001-3.399 4.2244-6.7306 9.3911-4.0381 6.2623-6.9552 9.4332-8.7498 9.5115-1.4808 0.0646-3.7552 0.32078-5.0545 0.56928-1.5133 0.28955-2.0186-0.11038-1.4064-1.1126zm60.904 0.40815c-0.7261-0.4488 2.3256-5.8643 6.7814-12.034 4.4557-6.1702 8.1014-11.886 8.1014-12.703 0-0.81629-3.3317-6.1867-7.4037-11.934-4.0721-5.7474-7.4037-10.741-7.4037-11.096 0-0.35551 1.9687-0.64116 4.3749-0.63457 3.8661 0.0135 4.9793 0.9497 9.5711 8.0768 2.8578 4.4356 5.6965 8.0649 6.3081 8.0649 0.6115 0 3.6614-3.6346 6.7775-8.0768 5.0746-7.2342 6.1532-8.0768 10.342-8.0768h4.6762l-3.7855 5.048c-2.0819 2.7764-5.7883 7.7095-8.2364 10.963-2.4482 3.253-4.4512 6.4381-4.4512 7.0781 0 0.63982 3.9409 6.6103 8.7576 13.268 4.8169 6.6573 8.6028 12.171 8.4133 12.252-0.1894 0.0808-2.1899 0.30705-4.4454 0.50183-3.7423 0.32321-4.6695-0.51435-10.596-9.5704-3.5719-5.4587-6.7056-9.9247-6.9633-9.9247-0.258 0-3.4471 4.4134-7.087 9.8075-6.4236 9.5194-9.5572 11.571-13.731 8.9917zm55.482 0.17957c-0.9512-0.58786 1.6202-5.2798 7.0967-12.949l8.5885-12.027-2.8352-4.0685c-1.5593-2.2375-5.1369-7.2228-7.9502-11.078-2.8133-3.8553-5.115-7.3384-5.115-7.7402 0-0.40182 1.9687-0.72529 4.3749-0.7187 3.8661 0.0135 4.9793 0.9497 9.5711 8.0768 2.8578 4.4356 5.6965 8.0649 6.3081 8.0649 0.6115 0 3.6614-3.6346 6.7774-8.0768 5.0747-7.2342 6.1533-8.0768 10.342-8.0768h4.6762l-3.7855 5.048c-2.0819 2.7764-5.7883 7.7095-8.2364 10.963-2.4482 3.253-4.4512 6.4504-4.4512 7.1051 0 0.65489 3.9172 6.6254 8.7048 13.268 4.7877 6.6425 7.9679 12.142 7.0672 12.22-0.9007 0.0781-2.8492 0.23019-4.3299 0.33654-1.9125 0.13744-4.4004-2.341-8.5889-8.5564-3.2432-4.8124-6.3721-9.274-6.9533-9.9146-0.5811-0.64076-3.9226 3.1452-7.4256 8.4133-3.5029 5.2679-6.7344 9.6244-7.181 9.6811-0.4467 0.0565-1.7911 0.29399-2.9875 0.52755-1.1964 0.23342-2.8465 0.0135-3.667-0.49753zm56.322 0.0767c0-0.31675 3.5103-5.4913 7.8005-11.499 4.2904-6.0074 8.2067-11.588 8.7029-12.401 0.4961-0.81279-1.6943-5.0531-4.8675-9.4229-3.1734-4.3697-6.8564-9.6107-8.1846-11.647l-2.4148-3.7018h4.7081c4.3155 0 5.1865 0.73418 10.445 8.8052l5.7368 8.805 6.2-8.7762c5.4843-7.763 6.7142-8.7794 10.654-8.805 5.16-0.0337 5.3549-0.55972-4.8278 13.035-4.5571 6.0837-6.8871 10.348-6.2517 11.442 0.5571 0.95898 4.5472 6.6839 8.867 12.722 4.3198 6.0382 7.8542 11.208 7.8542 11.488 0 0.28013-1.9456 0.48865-4.3235 0.46361-4.3498-0.0458-5.897-1.684-16.089-17.034-2.0095-3.0264-2.1068-2.9494-8.7966 6.9647-5.9717 8.8497-7.26 10.031-10.989 10.081-2.3233 0.031-4.2241-0.20299-4.2241-0.51987zm-1817.3-103.86v-6.7306h6.0576 6.0576v6.7306 6.7306h-6.0576-6.0576v-6.7306zm325.76 0v-6.7306h5.3845 5.3845v6.7306 6.7306h-5.3845-5.3845v-6.7306zm1529.2 0v-6.7306h5.3845 5.3845v6.7306 6.7306h-5.3845-5.3845v-6.7306zm324.42 0v-6.7306h6.0576 6.0575v6.7306 6.7306h-6.0575-6.0576v-6.7306z"/>
</g>
</svg>
